<?xml version="1.0" encoding="UTF-8"?>
<svg width="631px" height="207px" viewBox="0 0 631 207" version="1.1" xmlns="http://www.w3.org/2000/svg" xmlns:xlink="http://www.w3.org/1999/xlink">
    <!-- Generator: Sketch 57 (83077) - https://sketch.com -->
    <title>bc-logotype-dark</title>
    <desc>Created with Sketch.</desc>
    <g id="bc-logotype-dark" stroke="none" stroke-width="1" fill="none" fill-rule="evenodd">
        <path d="M413.417,78.008 C387.118,78.008 373.68,98.707 373.68,129.889 C373.68,159.366 388.211,181.491 413.417,181.491 C441.922,181.491 452.61,155.406 452.61,129.889 C452.59,103.247 439.159,78.008 413.409,78.008 M343.537,0.618 L374.776,0.618 L374.776,75.455 L375.329,75.455 C383.825,61.284 401.635,52.493 417.532,52.493 C462.196,52.493 483.852,87.657 483.852,130.468 C483.852,169.86 464.672,207 422.735,207 C403.553,207 382.999,202.19 373.676,182.907 L373.135,182.907 L373.135,203.045 L343.534,203.045 L343.534,0.622 L343.537,0.618" id="Fill-1" fill="#FFFF00"></path>
        <path d="M599.069,105.516 C596.6,87.655 583.997,78.01 566.731,78.01 C550.555,78.01 527.813,86.803 527.813,131.313 C527.813,155.696 538.223,181.5 565.36,181.5 C583.444,181.5 596.045,169.01 599.069,148.03 L630.307,148.03 C624.549,186.019 601.809,207 565.36,207 C520.961,207 496.573,174.404 496.573,131.313 C496.573,87.09 519.868,52.502 566.456,52.502 C599.34,52.502 627.301,69.51 630.307,105.516 L599.069,105.516" id="Fill-2" fill="#FFFF00"></path>
        <polygon id="Fill-3" fill="#FFFF00" points="0 202.603 109.421 0.618 343.74 0.618 234.316 202.603"></polygon>
    </g>
</svg>