<?xml version="1.0" encoding="UTF-8"?>
<svg width="384px" height="178px" viewBox="0 0 384 178" version="1.1" xmlns="http://www.w3.org/2000/svg" xmlns:xlink="http://www.w3.org/1999/xlink">
    <!-- Generator: Sketch 57.1 (83088) - https://sketch.com -->
    <title>Shape</title>
    <desc>Created with Sketch.</desc>
    <g id="Page-1" stroke="none" stroke-width="1" fill="none" fill-rule="evenodd">
        <g id="GravureOldStyleHandsFreeVectorPack" transform="translate(-70.000000, -127.000000)" fill="#EA9EE1" fill-rule="nonzero">
            <path d="M319,249.7 C317.4,259.9 313.3,268.1 304.3,273.2 C302.1,274.5 300.2,275.7 297.3,275.8 C294.5,275.9 292.3,278.5 293.4,281.1 C288.4,284.3 283.2,287 278.8,290.6 C272.4,295.7 266.1,297.7 257.9,295.3 C246.6,292.1 234.9,290.3 224.5,284.4 C223.6,283.9 222.3,283.6 221.4,283.9 C203.3,289.2 185.7,285.7 168.2,280.9 C163.3,279.6 158.5,277.7 153.5,276.1 C152.7,280.4 152,284.6 151,288.7 C149.8,293.4 147.3,296.5 142.1,297.6 C133,299.6 124.1,302.2 115,304.3 C109.1,305.7 103.6,304.5 99.2,300.5 C91.6,293.6 84.8,286 81.5,275.9 C79,268 75,260.4 73,252.4 C69,236.4 70.8,220 72.5,203.8 C73.9,190.7 77,178.2 84.7,167.1 C87.5,163.2 90.8,161.6 95.2,160.9 C98.2,160.4 101.1,158.9 104.1,158.2 C105.9,157.8 107.9,158.3 109.8,158.1 C125.6,156.4 141.4,154.1 157.2,153.2 C171.8,152.4 185.3,147.2 199.2,143.7 C214.6,139.8 229.6,134.4 244.8,129.5 C252.8,126.9 260.4,127.9 268.5,129.6 C285.6,133.3 302.9,136 320.2,139.1 C324.3,139.8 328.4,140.5 332.5,141.1 C332.5,141.5 332.5,141.9 332.5,142.3 C331.6,142.5 330.6,143 329.7,142.9 C311.5,139.8 292.8,138.2 275.1,133.1 C259.1,128.5 245,130.8 230,135.9 C212.2,141.9 193.8,146.2 175.9,151.9 C166.5,154.9 157.3,159 148.6,163.7 C141.1,167.7 138.1,175.7 135.1,183.9 C134.6,183.1 134.4,182.6 134.1,182.1 C133.7,182 133.3,181.9 132.9,181.8 C130.9,190.4 128.9,199 126.8,207.9 C126.6,206.1 126.5,204.5 126.3,203 C125.8,203 125.3,202.9 124.9,202.9 C124.6,210.6 123.7,218.4 124.1,226 C124.4,232.5 125.6,239.2 127.4,245.4 C128.6,249.7 131.7,253.5 133.9,257.5 C134.3,257.3 134.7,257.1 135.2,256.8 C132.6,251.5 130,246.1 127.3,240.8 C127.6,240.7 127.8,240.5 128.1,240.4 C133.3,248.6 138.6,256.8 143.8,265.1 C144.3,264.8 144.7,264.5 145.2,264.3 C142.5,260.1 139.8,256 137,251.8 C137.2,251.6 137.5,251.4 137.7,251.2 C139.5,252.7 141.4,254.2 143.7,256 C143.6,254.6 143.5,253.7 143.3,251.8 C145.2,254.6 146.8,256.9 148.3,259.1 C148.5,259 148.7,258.9 149,258.8 C148.3,257.2 147.7,255.5 146.6,252.8 C152,257.9 156.5,262.1 161,266.3 C161.4,266.1 161.7,265.8 162.1,265.6 C160.7,263.2 159.3,260.7 157.3,257.3 C163.4,262 168.4,265.9 174.7,270.8 C175,266.8 175.2,263.8 175.3,261.5 C180.7,265.5 187,270.3 193.2,275 C193.9,274.6 194.5,274.1 195.2,273.7 C193,267.5 190.7,261.3 188.5,255.1 C188.8,255 189,254.9 189.3,254.7 C191.5,258.9 193.5,263.2 195.9,267.4 C197.5,270.1 199.3,274.1 202.1,268.1 C202.5,267.3 203.6,267 204.4,266.4 C204.3,265.8 204.1,265.2 204,264.6 C206.1,265.5 208.2,266.4 210.2,267.3 C210.8,265.2 210.8,265.2 202.7,256.7 C205.7,257.8 207.5,258.5 210.6,259.6 C208.1,257.3 206.6,255.9 205.1,254.5 C205.2,254.3 205.3,254 205.4,253.8 C206.7,254.3 208,254.8 210.2,255.5 C208.8,253.8 207.9,252.6 206.9,251.4 C207,251 207.2,250.7 207.3,250.3 C213,251.5 218.8,252.6 224.5,253.8 C224.6,253.7 224.7,253.5 224.8,253.4 C220.2,251.1 215.6,248.9 211,246.6 C211,246.4 211.1,246.2 211.1,246.1 C212.4,246.3 213.8,246.4 216.1,246.7 C213.8,244.9 212.2,243.7 209.9,241.9 C212.4,240.4 214.6,239.1 216.7,237.8 C217,238.2 217.3,238.7 217.6,239.1 C216.2,240 214.7,240.9 212.4,242.4 C215.8,243.3 218,246.6 221.5,243.2 C222.1,242.7 224.5,244.1 226.9,244.9 C225.4,243.2 224.5,242.2 224.5,242.2 C224.5,238.7 224.5,236.2 224.5,233.4 C222.2,233.7 220.2,234 218.1,234.2 C218,233.9 217.9,233.6 217.9,233.2 C220.9,231.9 223.8,230.5 226.8,229.2 C226.8,228.9 226.9,228.6 226.9,228.2 C223.8,228.4 220.6,228.6 217.5,228.9 C217.4,228.6 217.3,228.3 217.3,228 C220.2,227.1 223.2,226.2 226.8,225.1 C222.3,221.5 219.2,226.4 215.3,225.8 C217.7,223.9 220,222 222.4,220.2 C213.4,218.8 207,223.4 200.2,226.8 C190.3,231.7 180.3,236.7 170.2,241.1 C166.6,242.7 162.5,243 158.2,242.8 C160.4,242 162.7,241.2 164.9,240.4 C164.6,239.7 164.3,239 163.8,237.9 C167,237.9 169.8,237.9 172.6,237.9 C172.6,237.7 172.7,237.5 172.7,237.3 C171.7,237 170.8,236.7 169.7,236.3 C172.2,234.7 174.5,233.2 177,231.5 C176,231 175.1,230.5 173.8,229.8 C174.5,229.5 174.9,229.1 175.2,229.2 C177.3,229.5 180.5,230.8 181.2,229.9 C184.1,226.3 189,227.9 192.2,224.6 C189.4,224.1 186.7,223.7 183.3,223.1 C191.1,222 197.9,221 204.8,220.1 C204.7,219.7 204.7,219.2 204.6,218.8 C201.9,218.1 199.1,217.4 196.4,216.7 C196.4,216.3 196.5,216 196.5,215.6 C200.2,215.9 203.9,216.3 208.9,216.7 C207.2,215.2 206.6,214.5 205.7,213.7 C207.1,213.4 208.4,213.4 209.6,212.9 C211.7,212 213.9,210.9 215.7,209.5 C216.1,209.2 215.2,207.2 214.8,205.7 C216,205.9 217.4,206.1 219.2,206.4 C218.8,205.6 218.4,204.9 217.9,204 C221.3,204.6 224.4,205.2 227.3,205.7 C225,203.2 222.8,200.7 220,197.6 C222,197.2 223.1,197 224.4,196.7 C220.5,193.4 216.8,190.3 213.1,187.2 C213.3,186.9 213.5,186.7 213.7,186.4 C216.3,187.9 218.8,189.6 221.4,191 C226.9,193.9 232.3,197.3 238.3,191.5 C239.3,190.5 242,191.4 245.3,191.4 C243.2,190.1 241.9,189.4 240.7,188.6 C240.9,188.3 241.2,188 241.4,187.7 C242.8,188.4 244.2,189.2 245.6,189.9 C245.8,189.7 246,189.4 246.2,189.2 C241.4,184.2 236.6,179.2 231.9,174.3 C242.1,179.1 248.7,190.2 261.4,188.9 C263.6,188.4 265.7,187.9 267.9,187.4 C268.5,184.6 269.3,181.4 270.1,177.6 C273.2,184.4 276.1,190.5 279,196.7 C279.4,196.5 279.9,196.4 280.3,196.2 C279.7,194.1 279.1,192.1 278.3,189.5 C286.2,189.9 289.1,196.1 293.5,199.4 C295.7,199.7 298.5,199.3 300.1,200.4 C305.4,204 310.8,203.3 316.4,201.9 C317,201.7 317.6,201.8 318.5,200.9 C316.6,200 314.6,199 312.7,198.3 C309.7,197.2 306.5,196.5 303.7,195.1 C295.8,191 295.6,182.8 303.1,178 C304.8,176.9 306.9,176.3 308.9,175.4 C301,169.8 293.6,163.6 285.3,159 C280,156.1 273.4,155.5 267.3,154.5 C258.1,152.9 248.7,152.7 239.8,150.4 C226.5,147 214,148.5 201.5,153.1 C193.6,156.1 185.7,159.1 177.8,162.2 C177.6,161.6 177.4,161 177.1,160.5 C187.4,156.6 197.6,152.5 208,149 C218.3,145.5 228.7,145.6 239.4,148.3 C244.6,149.6 250.4,148.5 256.6,148.5 C260,151.8 271.3,153.5 273.1,151.1 C283.4,154.4 293.6,157.7 300,167.4 C300.7,166 301,165.3 301.5,164.4 C303.3,166.7 305.1,169 307.3,171.8 C307.6,169.9 307.8,168.8 308.1,167 C309.3,168.7 310,169.9 311.1,171.4 C311.4,170.4 311.6,169.8 312,168.8 C313.9,171.1 315.6,173.3 317.3,175.4 C317.5,175.3 317.7,175.2 317.9,175.1 C317.4,173.1 317,171.2 316.5,169.2 C316.7,169.1 317,168.9 317.2,168.8 C319.4,171.1 321.6,173.5 323.7,175.8 C324.1,174.3 324.6,172.2 325.1,170.1 C325.6,170.2 326.1,170.2 326.6,170.3 C326.8,172.5 326.9,174.8 327.1,177 C327.4,177.1 327.7,177.1 328,177.2 C329.9,171.5 331.8,165.8 333.8,160 C334.1,160.1 334.4,160.2 334.8,160.3 C334.5,162 334.3,163.7 333.9,166.1 C335.7,163.6 337.1,161.7 338.6,159.6 C340.2,163.9 335.3,168.1 338.8,173.1 C340,170.4 340.8,168.7 341.9,166.1 C342.4,169.7 342.7,172.4 343.2,176.2 C344.5,174.6 345.1,173.8 346.1,172.6 C346.3,174.3 346.4,175.5 346.7,177.2 C347.5,175.9 348.1,175.1 349.3,173.2 C350.5,176.4 351.5,178.9 352.6,181.8 C353.7,180.2 354.6,178.9 355.7,177.3 C356.7,179 357.6,180.5 358.5,182 C362.2,178.5 365.4,178.1 368.8,182.1 C369.4,182.8 371.5,182.2 373.3,182.2 C373.7,181.4 374.4,180.3 375.7,178 C375.7,181 375.7,182.8 375.7,184.5 C378.2,176.4 387.4,180.6 392.1,174.5 C391.5,176.7 391.3,177.6 391,178.6 C391.2,178.7 391.4,178.8 391.5,178.8 C393.2,176.5 394.9,174.2 397.4,170.8 C397.2,175.1 397,177.9 396.9,181 C398.6,180.2 400,179.6 402.2,178.6 C401.5,180.1 401.1,181.1 400.2,183.2 C403.1,181.7 404.9,180.8 408,179.2 C406.2,181.7 405.2,183 404.1,184.5 C407.4,183.8 410.4,183.2 413.8,182.6 C413.5,184.7 413.4,185.9 413.1,187.7 C414.5,187.1 415.5,186.9 416.2,186.4 C418.6,184.7 420.9,184.3 423.3,186.4 C425.2,188.1 427.1,188 429.8,187.2 C432.6,186.4 435.9,184 439.6,186.3 C440.2,186.7 442.7,184 444.7,182.4 C444.7,183.7 444.7,184.6 444.7,185.6 C451.4,183 453,176.7 447.3,173.3 C441.8,170 435.4,167.8 429.1,166.3 C402.7,159.8 376.2,153.7 349.8,147.6 C344.6,146.4 339.4,145.3 334.1,144.2 C334.2,143.7 334.3,143.2 334.3,142.7 C336.8,143.1 339.3,143.3 341.8,143.9 C366,149.7 390.3,155.6 414.5,161.3 C421.5,163 428.8,163.9 435.8,165.7 C439.8,166.7 443.8,168.3 447.3,170.5 C455.9,175.9 455.4,185.8 446.1,190.4 C434,196.4 421.2,197.3 408.6,192.3 C401.2,189.3 394.6,188.9 386.5,190.1 C372.6,192.1 358.3,192.1 344.3,188.9 C343.5,188.7 342.9,187.7 342.1,187.3 C338.1,185.6 334,184 329.8,182.8 C341.8,193.2 342.4,196 335,205.3 C338.5,208.6 342.2,211.7 345.3,215.3 C352.2,223.3 351.8,231.4 344.4,238.9 C339,244.4 332.1,247 324.8,248.6 C322.9,249 321,249.3 319,249.7 Z M238.1,260.4 C233.6,256.3 227,255.2 222.8,257.9 C223.8,258.4 224.8,259.2 225.8,259.3 C229.9,259.7 234,260 238.2,260.3 C244.6,266.4 245.8,273.2 240.6,281.3 C244.5,282.6 247.9,283.8 251.8,285.2 C251.1,283.5 250.6,282.4 250.1,281.3 C253.7,286 258.7,286.5 264,286.3 C264,285.5 264,284.8 264,283.9 C265.7,284.9 267,285.6 269.1,286.8 C267.8,285 267,284 265.9,282.5 C268.1,282.9 269.7,283.2 272,283.6 C270,281.8 268.7,280.6 266.8,278.8 C271.9,278.2 276.2,277.7 280.4,277.1 C280.6,276.7 280.7,276.3 280.9,276 C277.1,274.1 273.4,271.9 269.5,270.4 C267.1,269.5 264.2,270.2 261.8,269.3 C253.9,266.5 246.1,263.4 238.1,260.4 Z M100,255.3 C99.4,267.9 107.7,276.2 114.4,285.3 C109.6,275.3 104.7,265.4 99.9,255.4 C99.7,253 99.5,250.5 99.2,247.5 C103,256.3 106.6,264.6 110.1,272.8 C110.6,272.6 111.1,272.4 111.6,272.2 C111.3,271 111.3,269.7 110.8,268.6 C107.8,262.1 105,255.7 104.8,248.2 C104.6,239.2 103.5,230.2 102.8,221.3 C102.7,220.2 103.1,219.1 103.3,218 C105.2,237.6 106.1,257.2 116.9,274.4 C116.8,272.6 116.1,271.1 115.7,269.5 C114,263.5 112,257.5 111,251.4 C110.2,246.3 110.6,240.9 110.5,235.7 C110.4,231.3 110.5,226.8 110.5,222.4 C111,222.4 111.6,222.4 112.1,222.4 C112.4,235.5 112.1,248.7 119.9,261.5 C118.9,252 117.9,243.9 117.3,235.7 C116.7,227.4 116.8,219.1 116.2,210.9 C115.6,202.1 117.7,194 120.7,185.9 C121.3,184.2 121.6,182.3 122,180.5 C121.3,180.3 120.7,180.2 120,180 C117.9,187.9 115.7,195.8 113.6,203.7 C113.3,203.6 112.9,203.6 112.6,203.5 C113.7,197.3 114.7,191 116,183.4 C108.2,198.6 108.6,213.8 107.7,228.8 C107.2,216.3 106.6,203.8 107.4,191.4 C107.8,185.4 110.9,179.6 112.8,173.7 C100.6,193.6 97.9,215.3 101.3,238.1 C100.4,236.9 99.9,235.7 99.6,234.5 C95.6,214.6 99.1,195.8 107.6,177.6 C109.3,174 110.3,170.1 111.7,166.4 C111.3,166.2 111,166.1 110.6,165.9 C109,167.9 107,169.6 105.9,171.8 C99,185.1 94.4,199 92.8,213.9 C92.3,218.2 91.7,222.6 91.1,226.9 C89.6,205.5 96,186 104.9,166.7 C102.1,168.6 99.6,170.7 98.2,173.4 C89.2,190.8 83.8,209.2 84.7,229.1 C84.9,233.7 85.2,238.2 85.5,242.8 C84,240.9 83.6,239 83.3,237 C80.7,216.7 84.9,197.6 93,179.1 C93.9,177 93.9,174.5 94.3,172.2 C93.9,172.1 93.5,172 93.1,172 C84.8,189 78.7,206.6 79.1,226 C75.4,209.3 81.8,194.3 86.9,179.1 C72.7,201.9 70.2,226.5 74.9,253.6 C75.6,251.7 75.9,250.8 76,250.6 C77.4,253 78.7,255.5 80.4,257.8 C81.4,259.2 83.3,259.9 84.3,261.3 C86.5,264.6 88.4,268 90.4,271.4 C90.6,271.3 90.9,271.1 91.1,271 C89.4,266.3 87.6,261.6 85.9,256.9 C86.2,256.8 86.5,256.7 86.8,256.5 C89.4,261.7 92,266.8 94.6,272 C95.1,271.8 95.6,271.6 96.2,271.4 C94.2,266 92.2,260.5 90.2,255.1 C90.5,255 90.8,254.9 91.1,254.7 C93.7,260 96.2,265.2 99.3,271.6 C96.7,259.9 94.3,249.5 92,239 C92.6,238.9 93.2,238.7 93.8,238.6 C94.5,242.2 95,245.8 96.1,249.3 C96.9,251.5 98.7,253.3 100,255.3 Z M342.6,219.2 C342.2,218.9 341.9,218.6 341.5,218.4 C340.9,219.6 340.2,220.9 339.6,222.1 C339.8,221.6 340,221.2 340.2,220.7 C338.5,218.2 336.8,215.8 335.2,213.3 C334.8,213.5 334.4,213.7 334,214 C334.3,212.7 334.7,211.3 335,209.9 C333.5,210.1 331.5,210.8 331.2,210.4 C329.4,207.5 327.4,208.8 325,209.3 C320.5,210.2 316,210.7 311.4,211.1 C309.3,211.3 307.1,211.1 305,211.1 C305,211.5 304.9,212 304.9,212.4 C312.2,213.3 319.4,214.1 326.7,215 C317.1,216.3 307.1,214.9 299.4,222.5 C301.2,223.9 303,225.4 305.9,227.7 C299,225.2 293.5,222.8 287.8,221.3 C282.2,219.8 276.3,219.2 270.5,218.2 C270.4,218.9 270.2,219.6 270.1,220.3 C273.2,221.1 276.4,221.9 279.5,222.6 C279.5,222.9 279.4,223.2 279.4,223.5 C278.5,223.7 277.6,224 276.6,224.3 C277.9,226.5 279.1,228.3 280.3,230.3 C281.1,228.8 281.8,227.6 282.5,226.4 C282.9,226.6 283.3,226.7 283.8,226.9 C282.7,230.6 281.5,234.3 280.5,237.6 C286.4,239.8 292.2,242 297.9,244.2 C298,244 298.1,243.9 298.2,243.7 C296.5,242.5 294.7,241.2 293,240 C293.1,239.8 293.2,239.5 293.3,239.3 C294.8,239.7 296.4,240.1 298.1,240.5 C297.5,239.4 297,238.7 295.9,236.8 C301.1,240.2 305.2,242.9 309.2,245.5 C309.4,245.3 309.5,245.1 309.7,244.9 C308.9,243.9 308,242.8 306.5,241 C310.7,242.6 313.8,243.9 316.9,245.1 C317,244.9 317.1,244.6 317.2,244.4 C315.7,243.3 314.3,242.1 312.8,241 C313,240.5 313.1,240.1 313.3,239.6 C317.6,240.8 321.9,242 327.5,243.6 C324.5,241.5 322.8,240.3 320.3,238.6 C325.6,239.1 329.9,239.6 334.4,240 C333.7,239.2 333,238.6 332.1,237.6 C334.9,236.8 337.3,236.2 339.7,235.5 C340.6,230.2 341.6,224.7 342.6,219.2 Z M297.7,268.7 C297.4,268.4 297,268 296.7,267.7 C304.8,264.4 305.1,255.2 312.3,250.1 C310,250 308.5,249.9 306.9,249.8 C294.9,248.8 282.8,248.4 270.9,246.4 C265.4,245.5 259.3,242.4 255.5,238.4 C250.8,233.5 245.9,233.6 240.4,233.7 C241.4,234.6 242.5,235 243.6,235.4 C257.4,240.3 260.9,248.3 253.7,258.7 C261.7,261.1 261.7,261.1 261.8,258.1 C266.7,260.3 271.6,262.5 277,265 C274.9,262.7 273.2,260.8 270.8,258.2 C278.4,262 285,265.2 291.6,268.5 C291.8,268.3 292,268 292.2,267.8 C291.6,266.8 291,265.8 290.1,264.3 C293.2,266.1 295.4,267.4 297.7,268.7 Z M325.2,197.4 C325.3,197.2 325.4,196.9 325.5,196.7 C326.5,196.6 327.6,196.9 328.3,196.4 C330.4,194.9 332.3,193.2 334.3,191.6 C332.9,190 331.7,187.8 330,186.7 C325.6,184 321,181.7 316.4,179.3 C312.3,177.2 306.8,178.6 304.4,182.5 C302.6,185.4 302.9,188.7 305.9,190 C312.2,192.9 318.8,195 325.2,197.4 Z M220.3,273.6 C220,274 219.7,274.3 219.4,274.7 C218.4,273.8 217.4,272.9 215.7,271.4 C219,278.6 220.2,279.7 224.1,279.7 C223.3,277.8 222.4,275.9 221.5,273.9 C221.9,273.6 222.2,273.4 222.6,273.1 C224.3,274.8 226.1,276.6 227.8,278.3 C229.5,280 231.2,281.7 232.9,283.3 C233.2,283 233.5,282.8 233.8,282.5 C233.2,281.3 232.6,280.1 232.2,279.4 C233.8,279.4 235.7,280 236.7,279.3 C243.3,274.7 242.7,266.2 235,263.9 C229.2,262.2 222.7,262.6 216.5,262.7 C214,262.7 214.1,264.8 215.4,266.6 C217.1,268.8 218.7,271.2 220.3,273.6 Z M233.2,240.5 C229.4,246.5 232.2,254.6 238.7,256.6 C238.7,255.6 238.7,254.6 238.7,252.9 C241.6,255.5 243.8,257.6 246.9,260.3 C246.4,258.2 246.2,257.1 246,256 C246.4,256.3 246.7,256.5 247.1,256.8 C248.8,255.5 251.1,254.5 252,252.7 C254.1,248.4 251.1,241.5 246.3,239.3 C240,236.5 236.7,235.8 234.8,243.5 C234.5,244.5 233.7,245.4 233.2,246.3 C233,246.2 232.7,246.1 232.5,245.9 C232.6,244.2 232.9,242.4 233.2,240.5 Z M274.7,240.9 C274.7,239 274.4,238 274.7,237.3 C278.3,230 278,228.4 271.8,223.9 C268.3,221.4 260.6,223 258.5,226.7 C256.4,230.4 258.1,235.1 262.9,237.3 C266.4,238.9 270.3,239.6 274.7,240.9 Z M109.5,188.4 C110,188.6 110.5,188.9 111,189.1 C114.4,182.6 117.7,176.2 121.1,169.7 C120.5,169.4 119.8,169.1 119.2,168.7 C115.9,175.3 112.7,181.8 109.5,188.4 Z M129.7,175.8 C129.2,175.5 128.8,175.3 128.3,175 C125.1,183 121.9,190.9 118.7,198.9 C119.2,199.1 119.6,199.3 120.1,199.5 C123.3,191.5 126.5,183.7 129.7,175.8 Z M337.1,194.3 C335.6,195.6 333.8,197.1 332.2,198.5 C333,198.9 334.6,199.8 337.1,201.1 C337.1,197.9 337.1,195.5 337.1,194.3 Z M162.2,277.1 C162.5,276.5 162.7,275.9 163,275.3 C159.6,273.7 156.1,272.1 152.7,270.4 C152.4,271.1 152.1,271.8 151.7,272.5 C155.3,274.1 158.8,275.6 162.2,277.1 Z M178.5,276.3 C178.2,276.8 177.9,277.3 177.6,277.8 C181,279.8 184.5,281.9 187.9,283.9 C188.2,283.4 188.4,283 188.7,282.5 C185.3,280.4 181.9,278.4 178.5,276.3 Z" id="Shape"></path>
        </g>
    </g>
</svg>