<?xml version="1.0" encoding="UTF-8"?>
<svg width="81px" height="95px" viewBox="0 0 81 95" version="1.1" xmlns="http://www.w3.org/2000/svg" xmlns:xlink="http://www.w3.org/1999/xlink">
    <!-- Generator: Sketch 57.1 (83088) - https://sketch.com -->
    <title>tombstone</title>
    <desc>Created with Sketch.</desc>
    <g id="Page-1" stroke="none" stroke-width="1" fill="none" fill-rule="evenodd">
        <g id="tombstone" transform="translate(-1.000000, 0.000000)" fill="#000000" fill-rule="nonzero">
            <path d="M22.201,94.793 C21.98272,94.7152 20.8636,94.23357 19.714,93.7228 C17.8171,92.88004 17.4624,92.80719 15.8775,92.93487 C14.89114,93.01437 13.3828,93.38249 12.4114,93.78085 C11.46552,94.16876 10.0147,94.55273 9.1874,94.63412 C7.203,94.82933 6.162,94.21747 3.0418,91.02172 C0.4127,88.32902 0.3332,87.88352 2.57393,88.40072 C3.32666,88.57448 4.01623,88.64292 4.10633,88.55283 C4.19642,88.46273 3.83973,87.61939 3.31367,86.67873 C2.78762,85.73805 2.35721,84.89843 2.35721,84.81293 C2.35721,84.47787 3.26517,84.68491 4.12431,85.21587 L5.02781,85.77427 L4.89277,85.14973 C4.31447,82.47503 3.92504,80.09103 4.04659,79.96953 C4.27545,79.74066 5.70799,80.41666 6.24009,81.00463 C6.85199,81.68078 8.12029,82.34323 8.43299,82.15003 C8.56464,82.06863 8.62354,81.02203 8.56388,79.82413 C8.32025,74.93213 7.86289,57.66013 7.82344,51.86213 L7.78122,45.65673 L8.77341,45.41965 C9.93111,45.14301 10.01181,44.87947 9.11783,44.29375 C8.15789,43.66477 7.54153,41.82655 7.75393,40.22585 C7.84968,39.50403 8.04312,36.40515 8.18379,33.33955 C8.45483,27.43275 8.9501,24.20975 9.79899,22.82855 C10.35258,21.92782 11.80139,21.27055 12.70969,21.50815 C13.51553,21.71888 13.60021,21.04245 12.97313,19.40375 C12.0386,16.96165 12.1156,16.73325 14.69653,14.29015 C20.28503,9.00015 24.99053,5.96795 31.76253,3.29315 C37.02333,1.21545 39.84463,0.69325 44.82253,0.87595 C49.55023,1.04943 52.46973,1.61813 58.03953,3.45045 C64.90613,5.70955 70.55553,8.85275 74.69053,12.71365 L76.70563,14.59555 L76.70563,16.35945 C76.70563,17.63555 76.8513,18.37835 77.23234,19.04525 C79.22134,22.52655 80.18884,25.37295 80.67154,29.16325 C80.82429,30.36265 80.94632,34.96445 80.94271,39.38925 C80.93771,45.98825 80.86501,47.57705 80.54068,48.22725 C80.00042,49.31025 80.04454,50.96335 80.67438,53.23615 C81.16749,55.01555 81.20354,55.95865 81.20354,67.07615 C81.20354,77.30115 81.14294,79.19315 80.77959,80.31015 C80.26001,81.90815 74.66369,93.60515 74.11129,94.24815 C73.27133,95.22523 71.34719,94.79294 68.81019,93.05715 L67.66159,92.2713 L66.57409,92.7617 C65.17329,93.39338 63.80659,93.31786 61.43099,92.47753 C59.04159,91.63233 57.20159,91.58976 56.22599,92.3571 L55.51869,92.91346 L53.21379,92.32186 C50.06599,91.51392 46.46909,91.49405 44.33449,92.27276 C42.90109,92.79569 42.73999,92.80634 42.14659,92.41747 C41.2537,91.83243 39.98829,92.09463 38.06439,93.26334 C35.89529,94.58094 34.90209,94.82894 33.73949,94.34324 C33.23175,94.1311 32.54969,93.65084 32.22379,93.27604 C31.45433,92.39109 31.17499,92.41411 29.38529,93.50998 C28.56299,94.01348 27.35439,94.54638 26.69959,94.69418 C25.44749,94.97675 22.87589,95.03296 22.20169,94.79248 L22.201,94.793 Z M50.741,88.5989 C51.32569,88.39508 52.3278,87.376 54.0584,85.2255 C57.0463,81.5124 57.8206,80.7486 58.2059,81.1338 C58.35944,81.28735 58.57141,82.3169 58.67694,83.4216 C58.78247,84.5264 58.96208,85.5235 59.07608,85.6375 C59.19008,85.75151 59.6143,85.43929 60.01878,84.9437 C60.46474,84.39728 60.9054,84.10064 61.13838,84.19002 C61.34965,84.27112 62.43728,84.93459 63.55538,85.66442 C65.87818,87.18082 67.27018,87.54402 68.43988,86.93922 C70.13368,86.06333 70.06878,86.64476 70.25178,70.71422 L70.41841,56.21522 L69.72793,54.76002 C68.87388,52.96012 68.83064,51.27232 69.56489,48.39652 C70.07015,46.41762 70.08505,45.90582 69.85503,38.43052 C69.63772,31.36832 69.54453,30.28972 68.95696,28.03752 C67.81096,23.64392 63.69546,15.82552 60.84096,12.61952 C59.67626,11.31152 56.82586,8.98722 56.38646,8.98722 C56.24859,8.98722 54.87706,9.58851 53.33856,10.32342 C49.72496,12.04962 48.06566,12.36662 44.95156,11.92592 C43.65296,11.74212 42.43796,11.68399 42.25146,11.79674 C42.06505,11.90949 41.07846,12.6163 40.05906,13.36744 C37.67526,15.12394 37.03966,16.29834 37.57506,17.95734 C38.01519,19.32114 39.09796,20.70934 40.73646,22.01074 C42.09266,23.08794 42.12796,23.14634 41.46884,23.22354 C41.08796,23.26814 40.33284,23.11931 39.79074,22.89281 C39.24865,22.66631 38.75684,22.48099 38.69774,22.48099 C38.6387,22.48099 38.66968,23.2549 38.76659,24.20079 C38.87144,25.22419 38.84194,25.92059 38.69374,25.92059 C38.55677,25.92059 38.17678,25.08873 37.84932,24.07199 C37.52186,23.05529 36.97592,21.89299 36.63612,21.48919 C36.01897,20.75575 35.58892,19.52409 35.29652,17.65239 C35.12323,16.54309 34.69537,16.39319 33.97492,17.18937 C33.69312,17.50076 33.15902,17.71894 32.67712,17.71953 C31.42492,17.72113 30.22052,18.57502 27.71572,21.23723 C26.45592,22.57613 25.35342,23.60093 25.26552,23.51443 C24.96527,23.21907 25.91474,21.06223 26.93582,19.72013 C27.90704,18.44353 28.55102,17.39143 28.55102,17.08113 C28.55102,16.62565 26.89802,16.14999 25.82592,16.29695 C24.06412,16.53843 23.99562,15.99184 25.68878,15.20365 C27.33098,14.43913 28.97408,14.3591 30.73178,14.95801 C31.85168,15.33959 32.01738,15.33694 32.81458,14.92469 C33.94108,14.34216 38.01968,10.80369 38.05148,10.38129 C38.06498,10.20216 37.74859,9.97212 37.34841,9.8701 C35.88461,9.4969 34.24851,9.67616 32.71821,10.37742 C31.75232,10.82004 31.19721,10.95917 31.19781,10.75849 C31.19941,10.21123 32.20201,8.76959 32.89801,8.31359 C34.33891,7.36948 35.27881,7.38073 39.10381,8.38787 C42.22391,9.2094 43.13131,9.33959 45.88121,9.36023 C48.89391,9.38284 49.11981,9.34667 50.30081,8.65245 C51.55811,7.91335 52.36351,7.03815 52.36351,6.41085 C52.36351,5.48457 48.71121,4.32935 43.80171,3.70265 C39.07881,3.09982 33.79071,4.63859 26.69871,8.67895 C22.09761,11.30045 16.05371,15.70015 15.14171,17.09215 C14.73324,17.71555 14.73353,17.84594 15.14591,18.99665 C15.83003,20.90545 15.73028,22.11275 14.81261,23.03035 C14.38724,23.45572 13.76221,23.82061 13.42351,23.84121 C13.0849,23.86182 12.51019,23.89158 12.14641,23.90735 C11.59134,23.93143 11.40286,24.1701 10.97461,25.39125 C10.5335,26.64895 10.44265,27.88775 10.30516,34.51935 C10.21767,38.73945 10.19387,42.34545 10.25228,42.53275 C10.31069,42.72003 10.731,43.06138 11.18631,43.2913 C12.50221,43.95582 13.20481,44.7328 13.20481,45.5238 C13.20481,46.14849 13.02982,46.31375 11.94801,46.7107 C11.25679,46.96431 10.54001,47.30828 10.35511,47.47508 C10.08344,47.72016 10.12186,51.62978 10.55537,67.85108 C10.8504,78.89108 11.1383,87.97108 11.19513,88.02808 C11.25197,88.08488 12.59063,88.19841 14.16983,88.28029 C17.53003,88.45451 17.56303,88.4355 18.62873,85.71629 C19.25465,84.11909 19.94153,83.07049 20.36183,83.07049 C20.46955,83.07049 20.55101,83.77936 20.54285,84.64579 C20.52912,86.10369 20.87157,87.03929 21.41892,87.03929 C21.53543,87.03929 21.99578,86.67426 22.44192,86.22812 C22.88807,85.78197 23.37348,85.49134 23.52062,85.58228 C23.66775,85.67318 23.78813,86.27931 23.78813,86.92918 C23.78813,87.95408 23.87813,88.14498 24.46681,88.36878 C25.37616,88.71451 29.32661,88.69772 30.34181,88.34378 C31.42371,87.96664 31.92181,86.84768 32.54421,83.39648 C32.8216,81.85828 33.04857,80.50078 33.04857,80.37988 C33.04857,80.25898 33.13935,80.16012 33.25031,80.16012 C33.36127,80.16012 33.67811,80.9638 33.95442,81.94602 C34.61382,84.29022 35.43692,86.11782 36.45682,87.50222 C37.27962,88.61912 37.29648,88.62672 38.95722,88.62672 C40.34952,88.62672 40.72252,88.52712 41.18702,88.03141 C41.78753,87.39049 43.09592,84.75171 43.10012,84.17291 C43.10332,83.73538 43.65655,83.89387 43.92469,84.40914 C44.03377,84.61876 44.33994,85.50464 44.60505,86.37774 C45.01198,87.71794 45.23134,88.03734 46.01315,88.42784 C47.07155,88.9566 49.46645,89.04342 50.74075,88.59922 L50.741,88.5989 Z M33.385,44.1829 C32.91492,43.89628 31.9862,42.9612 31.3212,42.1048 C29.4489,39.6938 28.0219,39.2449 28.0219,41.0669 C28.0219,42.627 26.6681,43.9329 25.628,43.3763 C24.71945,42.89006 24.4899,41.8377 24.3346,37.4459 L24.18544,33.2286 L22.97384,33.20648 C20.79974,33.16681 19.31534,31.60848 20.10554,30.19538 C20.45475,29.57091 20.70451,29.47392 22.34204,29.32684 C27.84424,28.83263 30.93744,29.1808 32.39204,30.45804 C33.64814,31.56094 33.93284,32.65814 33.78104,35.81134 C33.6609,38.30634 33.69432,38.54304 34.29489,39.45054 C34.94592,40.43431 35.69469,42.55014 35.69469,43.40614 C35.69469,43.93833 35.01851,44.70644 34.55129,44.7049422 C34.37979,44.70441 33.85485,44.46944 33.38479,44.18282 L33.385,44.1829 Z M29.8428,35.7351 C30.32278,35.4311 30.02017,33.7062 29.44835,33.4868 C28.68135,33.19248 28.04155,33.32713 27.76675,33.84074 C27.45791,34.41782 27.40243,35.53164 27.66925,35.79844 C27.92255,36.05174 29.41145,36.0084 29.84285,35.73517 L29.8428,35.7351 Z M48.7638,43.8708 C47.6578,43.3347 47.337,42.0602 47.337,38.2027 C47.337,34.7599 47.313,34.6038 46.68757,33.9783 C46.33038,33.62111 45.81371,33.32887 45.53937,33.32887 C44.98866,33.32887 44.42657,32.3321 44.42657,31.35557 C44.42657,30.98587 44.75005,30.45789 45.21759,30.06447 C46.27429,29.17535 48.26119,28.94557 52.07079,29.27174 C55.06489,29.52812 55.09059,29.53613 55.95739,30.48194 C57.01569,31.63674 57.32189,33.00394 56.8889,34.64144 C56.34569,36.69614 54.1553,38.88504 52.6424,38.88504 C51.5472,38.88504 51.3057,39.34128 51.3057,41.41054 C51.3057,42.90594 51.20459,43.39254 50.82185,43.73884 C50.28003,44.22918 49.59405,44.27311 48.76375,43.87065 L48.7638,43.8708 Z M53.0144,34.9514 C53.38532,33.7827 52.26139,32.3708 51.1768,32.643 C50.44643,32.82631 50.30762,33.55096 50.76994,34.7669 C50.97825,35.3148 51.20425,35.44558 51.94274,35.44558 C52.60357,35.44558 52.90104,35.30838 53.01434,34.95136 L53.0144,34.9514 Z M39.1504,43.3985 C38.85174,43.20953 38.72838,42.0527 38.57952,38.0447 C38.47508,35.2327 38.27022,32.5532 38.12429,32.0903 C37.79215,31.0366 38.149,30.4892 39.31779,30.2597 C40.01784,30.12222 40.27841,30.21889 40.83939,30.82425 C41.70792,31.76141 42.02539,32.97565 42.44049,36.94865 C42.82549,40.63355 42.62347,42.46295 41.75186,43.18455 C41.15306,43.68031 39.77506,43.79359 39.15046,43.39841 L39.1504,43.3985 Z" id="Shape"></path>
        </g>
    </g>
</svg>