<?xml version="1.0" encoding="UTF-8"?>
<svg width="494px" height="512px" viewBox="0 0 494 512" version="1.1" xmlns="http://www.w3.org/2000/svg" xmlns:xlink="http://www.w3.org/1999/xlink">
    <!-- Generator: Sketch 57.1 (83088) - https://sketch.com -->
    <title>pinocchio-svgrepo-com</title>
    <desc>Created with Sketch.</desc>
    <g id="Page-1" stroke="none" stroke-width="1" fill="none" fill-rule="evenodd">
        <g id="pinocchio-svgrepo-com" fill="#EA9EE1" fill-rule="nonzero">
            <path d="M54.281,120.93 C51.178,117.827 46.146,117.827 43.044,120.93 C39.941,124.033 39.941,129.065 43.044,132.167 L75.23,164.353 C76.781,165.904 78.815,166.681 80.849,166.681 C82.883,166.681 84.917,165.905 86.468,164.353 C89.571,161.25 89.571,156.218 86.468,153.116 L54.281,120.93 Z" id="Path"></path>
            <path d="M444.281,256.97 L444.281,236.239 C444.281,231.85 440.724,228.292 436.334,228.292 C431.944,228.292 428.388,231.85 428.388,236.239 L428.388,256.97 C428.388,261.359 431.945,264.917 436.334,264.917 C440.723,264.917 444.281,261.359 444.281,256.97 Z" id="Path"></path>
            <path d="M118.089,376.623 C113.896,377.918 111.545,382.367 112.84,386.56 C116.524,398.492 122.373,409.512 130.225,419.311 C131.794,421.27 134.102,422.289 136.432,422.289 C138.175,422.289 139.929,421.718 141.396,420.544 C144.82,417.8 145.372,412.799 142.628,409.373 C136.03,401.139 131.118,391.885 128.027,381.871 C126.732,377.679 122.283,375.331 118.089,376.623 Z" id="Path"></path>
            <path d="M310.508,336.758 L284.663,336.758 C280.273,336.758 276.717,340.316 276.717,344.704 C276.717,349.092 280.274,352.65 284.663,352.65 L310.508,352.65 C314.898,352.65 318.455,349.092 318.455,344.704 C318.455,340.316 314.896,336.758 310.508,336.758 Z" id="Path"></path>
            <path d="M408.045,345.066 L352.108,345.066 C347.718,345.066 344.161,348.624 344.161,353.012 C344.161,357.401 347.718,360.958 352.108,360.958 L408.045,360.958 C412.435,360.958 415.991,357.4 415.991,353.012 C415.991,348.624 412.435,345.066 408.045,345.066 Z" id="Path"></path>
            <path d="M460.028,315.345 L426.766,315.345 L442.73,299.381 C443.457,298.905 444.139,298.355 444.747,297.723 C451.861,290.325 468.406,270.534 468.406,246.605 C468.406,222.677 451.86,202.886 444.747,195.488 C442.557,193.209 439.491,191.903 436.334,191.903 C433.178,191.903 430.112,193.209 427.922,195.488 C420.808,202.887 404.262,222.678 404.262,246.605 C404.262,267.706 417.126,285.583 425.046,294.588 L404.29,315.345 L362.431,315.345 L362.431,287.218 C362.431,279.596 361.856,271.968 360.741,264.436 L360.971,264.436 C370.918,264.436 379.904,259.341 385.012,250.806 C390.119,242.271 390.362,231.943 385.659,223.179 C340.028,138.11 265.465,71.699 175.702,36.179 L88.679,1.741 C80.04,-1.677 70.345,0.012 63.374,6.147 C56.401,12.282 53.492,21.684 55.781,30.685 C60.006,47.294 62.578,64.317 63.475,81.467 C45.632,73.723 26.42,79.671 14.103,91.99 C-1.58,107.672 -6.95,134.526 13.132,155.509 C13.914,156.326 14.709,157.138 15.517,157.947 C25.836,168.265 37.116,176.664 48.491,183.506 C43.634,197.04 37.646,210.218 30.64,222.757 C25.742,231.527 25.852,241.935 30.936,250.598 C34.737,257.074 40.744,261.597 47.731,263.469 L47.731,293.398 C39.747,304.146 35.053,317.417 35.053,331.631 C35.053,349.433 42.418,365.754 54.387,377.49 C64.387,454.379 129.801,512 207.748,512 C283.533,512 347.898,457.06 360.284,383.083 L460.029,383.083 C478.704,383.083 493.898,367.889 493.898,349.214 C493.898,330.538 478.703,315.345 460.028,315.345 Z M420.155,246.605 C420.155,231.175 429.871,217.343 436.335,209.849 C442.798,217.342 452.514,231.175 452.514,246.605 C452.514,262.036 442.799,275.868 436.335,283.361 C429.871,275.868 420.155,262.035 420.155,246.605 Z M26.758,146.713 C26.032,145.986 25.317,145.255 24.612,144.52 C10.909,130.202 15.104,113.464 25.34,103.228 C32.025,96.543 39.276,93.802 46.157,93.802 C53.898,93.802 61.171,97.273 66.634,102.501 C67.368,103.205 68.098,103.918 68.822,104.642 C96.051,131.871 108.605,167.536 113.665,186.371 C114.237,188.502 113.092,189.939 112.572,190.459 C112.053,190.979 110.618,192.126 108.484,191.552 C89.648,186.492 53.984,173.938 26.758,146.713 Z M44.642,242.555 C42.442,238.806 42.395,234.303 44.514,230.508 C51.539,217.932 57.585,204.747 62.58,191.213 C77.663,198.695 92.278,203.655 104.361,206.902 C106.129,207.377 107.914,207.61 109.675,207.61 C114.917,207.61 119.958,205.551 123.811,201.698 C128.958,196.551 130.904,189.28 129.014,182.249 C122.329,157.367 108.411,121.756 80.06,93.405 C79.948,93.293 79.833,93.185 79.72,93.072 C79.551,70.685 76.687,48.397 71.183,26.766 C70.36,23.531 71.364,20.283 73.871,18.078 C76.378,15.872 79.726,15.29 82.829,16.518 L169.854,50.954 C256.127,85.094 327.795,148.925 371.653,230.69 C373.718,234.538 373.616,238.896 371.373,242.644 C369.13,246.393 365.339,248.541 360.97,248.541 L55.097,248.541 C50.749,248.541 46.842,246.304 44.642,242.555 Z M102.265,271.437 C99.16,268.708 95.036,267.442 90.949,267.971 C80.888,269.271 71.611,272.893 63.622,278.247 L63.622,264.434 L138.876,264.434 L138.876,288.785 C138.876,306.575 124.792,321.131 107.19,321.904 L107.19,282.32 C107.19,278.154 105.395,274.188 102.265,271.437 Z M50.943,331.632 C50.943,307.993 68.173,287.803 91.296,283.982 L91.296,298.96 C76.576,302.541 65.613,315.827 65.613,331.633 C65.613,347.439 76.577,360.726 91.296,364.306 L91.296,379.284 C68.173,375.461 50.943,355.272 50.943,331.632 Z M91.297,315.797 L91.297,347.466 C85.501,344.545 81.507,338.552 81.507,331.631 C81.507,324.711 85.501,318.719 91.297,315.797 Z M207.746,496.107 C142.878,496.107 87.687,451.636 72.866,390.151 C78.494,392.697 84.56,394.471 90.949,395.295 C91.559,395.373 92.17,395.413 92.779,395.413 C96.245,395.413 99.624,394.152 102.265,391.83 C105.395,389.078 107.19,385.111 107.19,380.946 L107.19,337.799 C133.558,337.017 154.769,315.34 154.769,288.787 L154.769,264.436 L344.658,264.436 C345.428,269.1 345.96,273.811 346.255,278.538 C340.503,274.697 333.599,272.453 326.179,272.453 C306.191,272.453 289.929,288.715 289.929,308.703 C289.929,311.483 291.358,313.925 293.52,315.346 L282.116,315.346 C263.441,315.346 248.247,330.54 248.247,349.215 C248.247,365.389 259.645,378.943 274.83,382.286 L222.646,382.286 C217.422,382.286 212.514,384.593 209.179,388.615 C205.848,392.632 204.491,397.874 205.455,402.997 C211.548,435.374 239.917,458.875 272.911,458.875 C289.641,458.875 305.175,452.824 317.226,442.645 C291.674,475.349 251.87,496.107 207.746,496.107 Z M346.537,308.702 L346.537,315.345 L302.232,315.345 C304.393,313.925 305.823,311.482 305.823,308.702 C305.823,297.477 314.955,288.345 326.18,288.345 C337.405,288.345 346.537,297.477 346.537,308.702 Z M233.196,424.957 C235.498,424.756 237.804,424.653 240.106,424.653 C257.701,424.653 274.388,430.293 288.161,440.725 C283.313,442.189 278.192,442.982 272.912,442.982 C257.248,442.981 242.948,436.086 233.196,424.957 Z M324.749,400.057 C322.175,413.731 314.42,425.334 303.751,433.02 C286.199,417.343 263.848,408.76 240.105,408.76 C234.744,408.76 229.366,409.225 224.047,410.131 C222.745,406.928 221.734,403.563 221.074,400.057 C220.962,399.458 221.196,399.022 221.413,398.76 C221.633,398.495 222.025,398.179 222.646,398.179 L323.176,398.179 C323.797,398.179 324.189,398.495 324.409,398.76 C324.626,399.021 324.86,399.458 324.749,400.057 Z M340.538,397.788 C340.16,394.454 338.842,391.264 336.642,388.614 C334.441,385.961 331.549,384.074 328.341,383.083 L344.138,383.083 C343.199,388.09 341.994,392.996 340.538,397.788 Z M460.028,367.19 L282.116,367.19 C272.204,367.19 264.14,359.126 264.14,349.214 C264.14,339.302 272.203,331.238 282.116,331.238 L460.027,331.238 C469.938,331.238 478.003,339.302 478.003,349.214 C478.003,359.126 469.939,367.19 460.028,367.19 Z" id="Shape"></path>
            <path d="M229.573,308.702 C229.573,313.091 233.131,316.648 237.519,316.648 C241.908,316.648 245.465,313.09 245.465,308.702 C245.465,288.714 229.203,272.452 209.215,272.452 C189.227,272.452 172.965,288.714 172.965,308.702 C172.965,313.091 176.523,316.648 180.912,316.648 C185.301,316.648 188.858,313.09 188.858,308.702 C188.858,297.477 197.99,288.345 209.215,288.345 C220.442,288.345 229.573,297.477 229.573,308.702 Z" id="Path"></path>
            <path d="M171.066,456.836 C150.317,449.122 132.024,434.719 119.559,416.283 C117.101,412.649 112.161,411.694 108.525,414.151 C104.89,416.609 103.935,421.549 106.393,425.185 C120.698,446.342 141.7,462.872 165.527,471.731 C166.44,472.07 167.376,472.231 168.296,472.231 C171.521,472.231 174.556,470.253 175.746,467.052 C177.273,462.94 175.179,458.365 171.066,456.836 Z" id="Path"></path>
            <path d="M116.594,371.51 C116.774,371.51 116.955,371.504 117.139,371.491 C121.518,371.194 124.827,367.405 124.531,363.026 C124.403,361.134 124.338,359.212 124.338,357.315 C124.338,352.926 120.78,349.369 116.392,349.369 C112.003,349.369 108.445,352.927 108.445,357.315 C108.445,359.569 108.522,361.851 108.674,364.099 C108.958,368.295 112.45,371.51 116.594,371.51 Z" id="Path"></path>
        </g>
    </g>
</svg>