<?xml version="1.0" encoding="UTF-8" standalone="no"?>
<!-- Created with Inkscape (http://www.inkscape.org/) -->

<svg
   xmlns:dc="http://purl.org/dc/elements/1.1/"
   xmlns:cc="http://creativecommons.org/ns#"
   xmlns:rdf="http://www.w3.org/1999/02/22-rdf-syntax-ns#"
   xmlns:svg="http://www.w3.org/2000/svg"
   xmlns="http://www.w3.org/2000/svg"
   xmlns:sodipodi="http://sodipodi.sourceforge.net/DTD/sodipodi-0.dtd"
   xmlns:inkscape="http://www.inkscape.org/namespaces/inkscape"
   id="svg3356"
   version="1.1"
   inkscape:version="0.91 r13725"
   width="1202.8125"
   height="373.125"
   viewBox="0 0 1202.8125 373.125"
   sodipodi:docname="AntiquePistol.svg">
  <metadata
     id="metadata3362">
    <rdf:RDF>
      <cc:Work
         rdf:about="">
        <dc:format>image/svg+xml</dc:format>
        <dc:type
           rdf:resource="http://purl.org/dc/dcmitype/StillImage" />
        <dc:title></dc:title>
      </cc:Work>
    </rdf:RDF>
  </metadata>
  <defs
     id="defs3360" />
  <sodipodi:namedview
     pagecolor="#ffffff"
     bordercolor="#666666"
     borderopacity="1"
     objecttolerance="10"
     gridtolerance="10"
     guidetolerance="10"
     inkscape:pageopacity="0"
     inkscape:pageshadow="2"
     inkscape:window-width="1600"
     inkscape:window-height="837"
     id="namedview3358"
     showgrid="false"
     inkscape:zoom="1.2026553"
     inkscape:cx="601.52402"
     inkscape:cy="186.6887"
     inkscape:window-x="-8"
     inkscape:window-y="-8"
     inkscape:window-maximized="1"
     inkscape:current-layer="svg3356" />
  <path
     style="fill:#000000"
     d="m 1057.5,372.53217 c -7.7219,-1.42288 -15.0432,-7.63126 -19.486,-16.52381 -2.3175,-4.63879 -3.1248,-7.83902 -3.8935,-15.43538 l -0.9697,-9.58328 4.5872,-13.85422 c 8.6715,-26.18965 8.5131,-24.71367 4.0517,-37.76048 -2.2232,-6.50111 -3.0823,-7.70275 -11.3939,-15.9375 -10.1555,-10.06142 -21.2807,-17.34035 -54.4583,-35.63066 -18.63506,-10.27325 -30.13162,-16.71667 -50.625,-28.37366 -17.12477,-9.74086 -41.77652,-22.69572 -45,-23.64817 -1.28906,-0.38089 -4.54223,-1.6845 -7.22927,-2.89692 -10.53546,-4.75375 -34.51404,-11.4314 -37.26204,-10.37689 -0.82767,0.31761 -1.48527,2.76316 -1.85037,6.88138 -0.31151,3.51377 -0.77705,8.63317 -1.03454,11.37644 -0.44994,4.79377 -0.3365,5.10371 2.91642,7.96875 3.58871,3.16078 6.0223,7.03591 6.0223,9.58961 0,2.96261 -3.15174,8.15662 -6.01871,9.91873 -4.96902,3.05407 -15.90707,1.57406 -20.54936,-2.78052 C 812.24648,202.59483 810,198.67162 810,196.19766 c 0,-2.65854 5.33436,-8.48485 8.38109,-9.15402 1.50664,-0.33092 3.14379,-1.10189 3.6381,-1.71328 0.49432,-0.61139 1.20124,-6.25203 1.57095,-12.53476 l 0.6722,-11.42315 -3.1468,-0.4815 c -1.73073,-0.26484 -6.52179,-0.72607 -10.64679,-1.02498 -9.0462,-0.65551 -14.95806,-1.17934 -26.71875,-2.36746 -4.89844,-0.49486 -16.28906,-1.11631 -25.3125,-1.381 -15.36082,-0.45059 -32.41393,-1.16365 -45.47607,-1.90152 -3.09777,-0.17498 -14.69934,-0.56838 -25.78125,-0.87422 -11.08191,-0.30584 -25.42237,-0.8021 -31.86768,-1.1028 -6.44531,-0.30072 -16.81856,-0.69167 -23.05167,-0.8688 -6.2331,-0.17714 -20.15498,-0.97041 -30.9375,-1.76283 -10.78252,-0.79242 -34.37021,-2.08949 -52.41708,-2.88238 -44.76347,-1.96668 -50.90236,-2.31092 -70.3125,-3.94289 -31.57178,-2.6545 -29.4382,-2.28395 -35.74517,-6.20805 -5.72656,-3.56296 -15.54638,-7.19902 -19.44226,-7.19902 -1.12839,0 -3.00439,-0.66734 -4.16888,-1.48298 -1.78215,-1.24828 -7.63916,-1.61409 -37.00547,-2.31129 -19.18853,-0.45557 -38.89603,-1.04601 -43.79447,-1.3121 -4.89844,-0.2661 -30.84375,-0.92084 -57.65625,-1.45499 -52.62788,-1.04843 -94.1443,-2.18806 -139.11713,-3.81877 l -28.49213,-1.03312 -2.24893,2.42537 c -2.65544,2.86377 -4.92397,3.06619 -7.84597,0.70011 -1.89083,-1.53111 -3.454084,-1.67429 -13.890203,-1.27226 -10.501278,0.40454 -11.936268,0.66438 -13.410795,2.42839 -0.908167,1.08646 -1.665248,2.52191 -1.682402,3.18987 -0.06781,2.64037 -4.552204,5.81709 -8.191701,5.80295 -5.763209,-0.0224 -8.669611,-2.21722 -12.085716,-9.1268 -0.839884,-1.69879 -16.566469,-1.57959 -19.878454,0.15067 -1.392363,0.72741 -3.770654,2.62584 -5.285092,4.21875 -4.822097,5.07196 -7.92676,3.14319 -9.922921,-6.16458 -1.138498,-5.30864 0.226647,-16.158 2.185444,-17.3686 1.975915,-1.22119 0.198766,-1.53683 -4.04025,-0.71759 C 4.1378622,104.6896 0.99674606,102.76571 0.83030845,92.400869 0.45410954,68.973201 1.8531428,55.229604 4.6036078,55.333344 c 0.3039533,0.01146 6.0370172,0.662414 12.7401422,1.446554 6.703125,0.78414 15.474384,1.591395 19.491688,1.793897 6.306224,0.317882 22.788052,2.084755 47.070812,5.046049 5.287412,0.644802 6.873932,0.531451 8.165348,-0.583386 1.013587,-0.874995 2.47838,-1.163941 3.98438,-0.78596 3.236709,0.812362 3.016266,2.437002 -0.330675,2.437002 -3.007912,0 -3.409135,0.636701 -4.348463,6.900589 -0.69247,4.617715 0.322227,5.909529 3.959026,5.040249 1.444575,-0.345288 1.356628,-0.543319 -0.59445,-1.338613 l -2.289838,-0.933374 2.482166,-0.622984 c 1.856522,-0.465957 2.72774,-1.507271 3.456478,-4.1313 0.535875,-1.929574 0.976678,-3.99367 0.979547,-4.58688 0.0056,-1.16508 54.635271,-1.048232 113.442731,0.242646 16.75781,0.367849 44.17969,0.751655 60.9375,0.852904 16.75781,0.101248 30.89062,0.225658 31.40625,0.276467 0.51562,0.05081 27.30469,0.370242 59.53125,0.709848 32.22656,0.339607 60.28125,0.720049 62.34375,0.845427 2.0625,0.125379 46.35937,0.506222 98.4375,0.846319 52.07812,0.340097 98.54612,0.844305 103.2622,1.120463 l 8.57471,0.502104 5.0194,-4.033808 c 7.73648,-6.217374 11.3032,-8.768967 14.71221,-10.524942 2.90626,-1.497017 3.02402,-1.730997 1.64062,-3.259644 -1.8353,-2.027972 -1.90947,-4.786469 -0.1919,-7.135403 1.15173,-1.575076 1.70267,-1.651756 4.87421,-0.678384 1.96664,0.603578 3.73633,0.936784 3.93266,0.740456 0.19633,-0.196326 -0.34685,-1.431104 -1.20706,-2.743949 -1.02855,-1.569767 -1.36291,-3.302626 -0.97661,-5.061428 0.36091,-1.643187 0.0339,-3.736478 -0.84793,-5.428725 -0.89293,-1.713434 -1.22543,-3.88377 -0.87986,-5.743102 0.82376,-4.432257 -1.94947,-10.155064 -5.04522,-10.411276 -1.32773,-0.109887 -3.24227,-0.936695 -4.25451,-1.837353 -2.35114,-2.091955 -4.6465,-7.4724201 -3.81578,-8.9444493 C 651.96727,2.334532 654.93383,0 657.06349,0 c 3.25264,0 10.82657,8.0045068 15.88839,16.791672 8.46879,14.701566 20.51822,26.78555 43.29812,43.4223 2.32361,1.696993 5.06104,4.802321 6.09375,6.912738 l 1.875,3.831674 11.71875,0.610756 c 20.82047,1.085119 33.3696,0.800078 34.6875,-0.78789 1.24316,-1.497923 4.88478,-1.746313 7.96687,-0.543412 1.31456,0.51306 2.90687,0.04695 5.33985,-1.563123 2.90499,-1.92243 4.12059,-2.187872 7.50188,-1.638124 l 4.03515,0.656056 -3.74746,-3.8889 c -3.3316,-3.457344 -4.16389,-3.858165 -7.5,-3.611948 -3.62458,0.267508 -3.74214,0.380847 -3.44751,3.323826 0.28365,2.833372 0.10627,3.046875 -2.53154,3.046875 -1.70893,0 -3.19565,-0.64164 -3.73982,-1.614031 -0.84613,-1.511931 -1.27904,-1.487408 -6.84346,0.387652 -5.11429,1.72337 -6.21546,1.826248 -7.91986,0.739914 -1.67575,-1.068062 -2.83987,-1.031288 -7.58288,0.239538 -8.95215,2.398612 -11.04232,0.508026 -5.53122,-5.003073 3.10417,-3.104167 3.12867,-3.1875 0.9375,-3.1875 -3.35625,0 -2.94883,-3.891155 0.8586,-8.200424 1.70973,-1.93508 4.09699,-4.994889 5.305,-6.799576 1.20803,-1.804688 3.43409,-4.6072 4.94682,-6.227806 2.44588,-2.620288 2.62107,-3.188271 1.58216,-5.129492 -0.64256,-1.200615 -1.11627,-3.566071 -1.05273,-5.256569 0.0826,-2.197981 -0.29749,-3.073633 -1.33426,-3.073633 -2.27135,0 -6.93059,-5.222743 -6.93059,-7.768793 0,-3.388739 4.28478,-7.231207 8.06361,-7.231207 3.72081,0 5.15591,2.083141 5.23198,7.594552 0.0284,2.060118 0.28441,3.512954 0.56883,3.228521 0.28444,-0.284432 1.50005,0.126868 2.70136,0.914 2.67104,1.75013 2.72494,0.929833 0.30922,-4.705823 -2.2415,-5.229203 -2.35205,-7.3432507 -0.46586,-8.9086456 3.64495,-3.0250433 11.59709,0.8192739 15.29135,7.3923296 1.77994,3.166981 2.5438,3.671931 6.17352,4.081053 8.30779,0.936409 12.21407,6.425456 8.42374,11.836917 -2.32611,3.32099 -0.35176,4.669879 3.88092,2.651459 1.82734,-0.8714 3.87555,-1.584363 4.55159,-1.584363 1.76021,0 4.33374,3.113042 4.32367,5.23007 -0.009,1.937923 -3.12113,8.633004 -5.95415,12.809975 -1.09777,1.618534 -1.53731,3.39473 -1.18621,4.793567 1.2339,4.916289 12.42859,19.353888 15.0067,19.353888 0.59002,0 1.70099,-2.214844 2.4688,-4.921875 1.3469,-4.748683 1.5229,-4.932307 5.00169,-5.218325 2.42651,-0.199503 4.18877,0.231252 5.3887,1.317176 2.2842,2.067165 2.25085,3.421558 -0.13744,5.582929 -1.39038,1.258273 -1.84323,2.656945 -1.64062,5.067177 0.26024,3.095874 0.57548,3.402625 4.4986,4.377414 6.15409,1.529126 34.09126,11.334188 52.5,18.425832 3.35156,1.291134 12,4.974662 19.21875,8.185632 7.21875,3.21097 16.71094,7.4242 21.09375,9.36275 4.38281,1.93854 13.875,6.26459 21.09375,9.61345 7.21875,3.34885 17.55469,8.07065 22.96875,10.49288 5.41406,2.42224 18.07031,8.54841 28.125,13.61372 10.0547,5.06531 20.9686,10.33691 24.253,11.71466 3.2846,1.37775 7.5033,3.47141 9.375,4.65257 1.8718,1.18118 4.4579,2.46398 5.747,2.85067 1.2891,0.3867 5.5078,2.52075 9.375,4.74234 3.8672,2.2216 15.0469,7.61065 24.8438,11.97567 9.7968,4.36503 19.5,8.80438 21.5625,9.86521 6.5515,3.36975 14.6232,6.70053 19.5765,8.07828 2.6392,0.73406 7.9625,2.58941 11.8297,4.12298 9.3731,3.717 21.5573,6.39888 34.6875,7.63511 11.7778,1.1089 20.5298,2.4925 23.9203,3.78158 3.3044,1.25636 11.0355,7.39926 12.8142,10.18186 2.6463,4.13972 6.4352,16.96458 5.7815,19.56926 -0.3275,1.30447 -2.5392,5.00537 -4.915,8.22421 -2.3758,3.21884 -6.2089,8.50106 -8.5179,11.73826 -3.3368,4.67829 -5.2176,6.33669 -9.1673,8.08346 -10.5782,4.67817 -21.4097,2.05602 -27.1814,-6.5802 -5.8202,-8.70881 -3.3764,-18.19254 6.3456,-24.62633 3.4755,-2.29998 4.0798,-2.41357 7.457,-1.40176 3.6864,1.1045 7.5255,4.84069 7.5255,7.32393 0,0.73021 -1.4935,1.95171 -3.319,2.71444 -3.6772,1.53639 -3.5487,2.51425 0.6128,4.66626 5.8555,3.02804 8.8953,-1.40505 5.5115,-8.03785 -4.0597,-7.95761 -16.6554,-13.67041 -26.4284,-11.98664 -6.4244,1.10684 -10.1789,4.27974 -13.4734,11.38625 -5.9498,12.83461 -4.6304,25.47479 3.6225,34.70225 l 3.2368,3.61898 -1.7564,4.80529 c -0.966,2.6429 -1.7564,4.86552 -1.7564,4.93915 0,0.0736 1.2591,0.65538 2.7979,1.29277 2.2886,0.948 3.4402,0.90881 6.3281,-0.2154 7.4182,-2.88782 12.8115,1.19422 12.3013,9.31046 l -0.2832,4.50477 4.128,1.31368 c 3.427,1.09059 4.6168,1.10644 7.0061,0.0933 4.2138,-1.78677 11.4683,-2.23414 14.6769,-0.90509 4.7477,1.96655 6.4824,5.09016 6.4824,11.67213 0,6.76421 -1.2271,10.89552 -4.5986,15.48221 -4.6698,6.35298 -5.5103,6.76872 -12.9346,6.39852 -5.9185,-0.29511 -7.0988,-0.66887 -9.561,-3.02787 -3.4473,-3.30274 -4.9376,-9.28565 -3.6929,-14.82541 0.8162,-3.6325 0.6831,-4.08167 -2.0038,-6.76491 -2.8689,-2.86496 -2.8871,-2.86887 -5.7445,-1.23345 -7.2732,4.16272 -15.8396,-0.99738 -15.8396,-9.54121 0,-3.39218 -4.0123,-6.74338 -5.8606,-4.89503 -1.7059,1.70586 -4.1153,1.28025 -9.3879,-1.65827 -11.1633,-6.22146 -23.8617,-7.40308 -36.8519,-3.42916 -7.6108,2.32823 -16.6074,6.64362 -20.9357,10.04217 -5.9094,4.63992 -11.0577,17.68423 -9.8971,25.0761 0.6794,4.32726 0.6794,4.32726 1.5778,1.51477 1.9626,-6.14363 3.8283,-9.10122 7.3511,-11.65315 7.5294,-5.45422 14.7076,-4.58704 22.7311,2.74607 8.2917,7.57814 9.267,15.72075 3.3279,27.7849 -3.1139,6.32521 -9.0126,12.52843 -11.9133,12.52843 -0.9506,0 -3.1643,0.72114 -4.9193,1.60253 -3.1298,1.57185 -12.1548,2.40777 -16.7846,1.55464 z m 20.2605,-5.59087 c 7.1717,-3.39274 10.2094,-8.08975 10.205,-15.77908 -0.01,-9.31268 -4.1817,-14.98489 -13.3573,-18.14181 -5.3594,-1.84393 -12.4624,2.49205 -14.1613,8.64458 -1.1055,4.00406 0.7416,10.25105 3.324,11.24204 1.0954,0.42033 1.2617,0.15846 0.6985,-1.09952 -0.4067,-0.9082 -0.913,-3.60509 -1.1249,-5.9931 -0.3298,-3.71408 -0.072,-4.56127 1.7811,-5.85938 4.1828,-2.92974 12.1622,-1.0844 15.1717,3.50864 0.8899,1.35821 1.6999,4.34835 1.7998,6.64475 0.1596,3.6675 -0.2329,4.58984 -3.2272,7.58415 -8.8379,8.83793 -23.9876,5.25225 -29.3542,-6.94768 -3.1103,-7.07051 -0.2073,-24.7883 5.2568,-32.08351 7.0969,-9.47518 21.4241,-18.18705 34.6428,-21.06514 13.4185,-2.92158 24.7137,-1.79496 34.5793,3.44906 2.7986,1.48759 5.5713,2.7047 6.1616,2.7047 0.5903,0 2.1164,-1.59326 3.3914,-3.54059 l 2.318,-3.54058 -3.5888,-5.56245 c -4.5265,-7.01565 -6.5314,-13.85263 -6.2581,-21.34013 0.5332,-14.60746 7.4535,-27.1437 18.0913,-32.77311 3.8814,-2.05402 6.0701,-2.54575 11.4753,-2.57813 8.1007,-0.0486 13.3619,1.6839 18.9032,6.22456 14.8282,12.15066 6.3275,35.15426 -10.378,28.08357 -4.1821,-1.7701 -6.1051,-4.21758 -6.8183,-8.67819 -0.5724,-3.57885 -0.3917,-3.992 2.95,-6.74647 3.7593,-3.09877 3.8716,-3.61823 0.8515,-3.93976 -3.9927,-0.4251 -5.2474,0.12075 -7.0415,3.06315 -2.35,3.85417 -2.4546,11.23529 -0.2226,15.70313 2.9727,5.95079 12.8966,9.30867 20.6797,6.99732 9.2623,-2.75061 14.3163,-12.22406 11.9507,-22.40086 -2.6029,-11.19691 -11.4994,-20.19939 -23.6795,-23.96144 -21.1232,-6.52429 -40.1544,4.61103 -48.1122,28.15076 -2.492,7.37156 -3.0393,21.23877 -1.0265,26.0099 0.7139,1.69232 1.1001,3.27492 0.8581,3.51691 -0.242,0.24199 -3.7792,-0.42051 -7.8606,-1.47223 -5.6478,-1.45538 -8.8763,-1.76635 -13.5143,-1.30172 -7.1542,0.71671 -14.7236,3.15684 -18.8025,6.06124 -4.6385,3.3029 -5.0982,0.92572 -0.7376,-3.81399 19.6414,-21.34891 62.4892,-62.78589 64.9235,-62.78589 0.2893,0 2.5829,-1.26563 5.0969,-2.8125 2.514,-1.54688 5.2624,-2.8125 6.1078,-2.8125 3.4038,0 1.2474,-1.70384 -2.9162,-2.30408 -8.789,-1.26704 -19.3775,-4.43194 -33.3001,-9.95341 -7.7869,-3.08812 -14.6068,-5.95892 -15.1555,-6.37957 -0.5487,-0.42066 -5.7831,-2.76499 -11.6321,-5.20962 -16.7487,-7.00025 -31.1338,-13.78078 -73.7404,-34.75815 -32.67652,-16.08824 -41.8403,-20.43931 -65.1563,-30.93685 -34.51631,-15.54027 -43.57775,-19.40953 -67.5,-28.822729 C 860.81802,91.464678 811.12351,75 807.46526,75 c -1.04253,0 -1.24366,1.417203 -0.9646,6.796875 0.19391,3.738281 0.0497,8.170915 -0.32054,9.850297 -0.59932,2.718653 -0.42045,3.116837 1.63144,3.631825 2.47337,0.620784 7.94576,-1.468163 13.23101,-5.050606 3.70727,-2.512856 6.19387,-1.713705 7.20517,2.315615 0.73382,2.923794 1.98632,3.985035 4.72101,4.000138 1.09112,0.0056 4.42261,2.695331 7.96875,6.432696 3.35156,3.53229 7.01524,6.90909 8.14149,7.504 1.12626,0.59491 4.62768,1.08166 7.78093,1.08166 8.05324,0 13.15094,3.00028 11.6672,6.86681 -0.62802,1.63662 11.51795,11.57406 20.06832,16.41925 3.64679,2.0665 10.13045,5.28793 14.40816,7.15874 4.27771,1.87081 8.5102,3.80169 9.40555,4.29084 3.13616,1.71335 6.09481,1.0598 6.73415,-1.48755 0.76776,-3.05898 3.83259,-4.18559 11.38648,-4.18559 5.50719,0 7.79278,0.99882 4.86084,2.1242 -1.50916,0.57925 -4.89107,10.47122 -4.04691,11.83711 0.35856,0.58016 3.22143,1.03869 6.48517,1.03869 5.71453,0 5.93531,0.0951 10.02281,4.31577 2.29875,2.37367 5.76159,5.33209 7.69519,6.57426 1.93359,1.24217 3.51562,2.99423 3.51562,3.89346 0,1.40539 -1.02028,1.64956 -7.26562,1.73886 -3.9961,0.0571 -9.846,0.41741 -12.99985,0.80063 -4.67195,0.5677 -6.19155,0.3971 -8.20311,-0.92093 -1.35791,-0.88973 -2.46892,-2.20199 -2.46892,-2.91612 0,-2.5732 -1.70269,-1.22027 -3.21219,2.55235 -1.24932,3.12235 -1.88927,3.74304 -3.38305,3.28125 -6.28489,-1.94296 -6.14556,-1.93527 -4.77435,-0.26335 0.70767,0.86284 1.67815,1.56882 2.15661,1.56882 1.06951,0 23.71845,11.17263 28.62307,14.11968 1.95732,1.17603 6.93366,4.35211 11.05866,7.05796 4.125,2.70584 12.5625,7.551 18.75,10.76702 6.1875,3.21601 11.88281,6.37106 12.65625,7.0112 0.77344,0.64015 4.14844,2.6189 7.5,4.39722 28.1072,14.91359 40.4976,22.78399 50.4955,32.07496 8.4144,7.81937 8.5968,7.77882 1.1831,-0.26302 -2.294,-2.48823 -2.6424,-3.36413 -1.7289,-4.34631 0.939,-1.00958 1.584,-0.91748 3.5984,0.51386 3.1075,2.20792 6.2489,6.70295 4.1112,5.88265 -0.7751,-0.29745 -1.4093,-0.83823 -1.4093,-1.20172 0,-0.36348 -1.3711,-1.65311 -3.0469,-2.86583 -1.844,-1.33449 -0.7068,0.25746 2.881,4.03252 4.2144,4.43469 5.8565,6.85 5.6816,8.35677 -0.1354,1.16561 0.6775,3.89545 1.8066,6.06632 2.6813,5.15564 2.7571,12.96682 0.1777,18.3056 -1.0313,2.13444 -1.875,4.26236 -1.875,4.72871 0,0.46635 -0.8438,1.92058 -1.875,3.23159 -1.0313,1.31102 -1.875,3.18377 -1.875,4.16167 0,0.9779 -0.629,2.01935 -1.3977,2.31434 -0.7687,0.29499 -1.902,2.21974 -2.5184,4.27723 -0.6165,2.05749 -2.2896,4.99206 -3.7182,6.52126 -1.4284,1.5292 -3.1357,4.26967 -3.7939,6.08993 -0.6582,1.82025 -1.8536,3.66111 -2.6565,4.09081 -1.7929,0.95951 -2.3241,5.04775 -2.3128,17.80058 0.01,8.80703 0.2872,10.44861 2.6539,15.58698 3.1237,6.78155 8.561,12.44215 12.9474,13.47892 1.7269,0.4082 6.4356,0.78536 10.4636,0.83814 6.0652,0.0795 8.2078,-0.32228 12.4681,-2.33774 z M 1066.875,346.875 c 0,-0.51563 -0.4468,-0.9375 -0.9928,-0.9375 -0.5461,0 -0.7321,0.42187 -0.4134,0.9375 0.3186,0.51562 0.7654,0.9375 0.9928,0.9375 0.2274,0 0.4134,-0.42188 0.4134,-0.9375 z m 11.5775,-1.43628 c -0.2905,-0.75692 -0.9048,-1.37622 -1.3653,-1.37622 -0.962,0 -1.1311,2.20606 -0.2377,3.09952 1.0001,1.00007 2.1668,-0.25414 1.603,-1.7233 z m -24.7025,0.03 c 0.651,-0.78444 0.7525,-1.40625 0.2296,-1.40625 -0.5156,0 -1.4627,0.63281 -2.1046,1.40625 -0.651,0.78444 -0.7525,1.40625 -0.2296,1.40625 0.5156,0 1.4627,-0.63281 2.1046,-1.40625 z m -0.2827,-10.38773 c 0.1799,-7.17832 0.1433,-7.31586 -1.1006,-4.14352 -1.6915,4.31411 -1.8675,12.48878 -0.2573,11.95601 0.7841,-0.25943 1.2334,-2.84459 1.3579,-7.81249 z m 37.2192,2.26558 c -0.836,-1.35253 -2.251,0.12562 -2.2192,2.31811 0.029,1.98651 0.074,1.99556 1.3763,0.2753 0.7405,-0.97831 1.1198,-2.14534 0.8429,-2.59341 z m -2.373,-1.48992 c 1.867,-3.48849 -9.5152,-12.1106 -12.6037,-9.54739 -2.3552,1.95467 -1.5062,4.26583 2.1808,5.93609 1.9336,0.87595 4.5703,2.40721 5.8594,3.40279 2.9076,2.24557 3.4598,2.27081 4.5635,0.20851 z m 94.8736,-5.77179 c 0.8075,-1.68307 1.7567,-3.02352 2.1093,-2.97876 3.8983,0.49481 4.3911,0.0562 4.3847,-3.90301 -0.01,-3.45499 -0.4181,-4.26463 -3.1049,-6.09375 -3.606,-2.45486 -8.8616,-2.7533 -12.7822,-0.72585 -2.8544,1.47608 -6.6065,6.7431 -6.6065,9.27401 0,1.79674 1.7314,2.05678 2.3843,0.35809 0.6355,-1.65356 5.1157,-1.77196 5.1157,-0.13519 0,0.71888 0.4219,1.30707 0.9375,1.30707 0.5156,0 0.9375,-0.60791 0.9375,-1.35092 0,-2.08296 1.7346,-2.67348 3.2885,-1.11957 1.5854,1.58541 1.8771,5.81433 0.4615,6.68924 -1.3492,0.83389 -1.1572,2.57133 0.2344,2.1194 0.6445,-0.20934 1.8326,-1.75767 2.6402,-3.44076 z m -140.886,-13.33806 c -0.2341,-0.70214 -0.6591,-0.27717 -0.9906,0.99052 -0.4078,1.55939 -0.2857,1.92542 0.4099,1.22973 0.5449,-0.54478 0.806,-1.5439 0.5807,-2.22025 z m 125.3552,0.12817 c -0.3187,-0.51563 -1.7147,-0.93104 -3.1022,-0.92315 -1.9733,0.0113 -2.2165,0.21234 -1.1166,0.92315 1.8524,1.19709 4.9586,1.19709 4.2188,0 z m -11.871,-7.26563 c 0.5933,-1.62427 0.969,-1.97113 1.0157,-0.9375 0.1102,2.44276 1.6599,1.98289 2.3311,-0.6918 1.1537,-4.59645 -4,-9.0479 -8.6015,-7.42961 -3.0384,1.06853 -3.7677,3.64374 -1.6839,5.94622 0.8388,0.92687 1.2478,2.35558 0.9193,3.21149 -0.8927,2.32668 1.0371,1.84966 2.2962,-0.56755 1.0652,-2.04516 1.0878,-2.03089 0.742,0.46875 -0.2288,1.6537 0.073,2.57813 0.8414,2.57813 0.659,0 1.6219,-1.16016 2.1397,-2.57813 z M 1147.5,308.4375 c 0,-0.51563 -0.186,-0.9375 -0.4134,-0.9375 -0.2274,0 -0.6742,0.42187 -0.9928,0.9375 -0.3187,0.51562 -0.1327,0.9375 0.4134,0.9375 0.546,0 0.9928,-0.42188 0.9928,-0.9375 z m -3.75,-5.625 c 0,-0.51563 -0.4219,-0.9375 -0.9375,-0.9375 -0.5156,0 -0.9375,0.42187 -0.9375,0.9375 0,0.51562 0.4219,0.9375 0.9375,0.9375 0.5156,0 0.9375,-0.42188 0.9375,-0.9375 z m -4.35,-11.10494 c 1.4782,-1.63343 1.3327,-2.07714 -2.6074,-7.95292 -2.6673,-3.97751 -4.4028,-7.75511 -4.8097,-10.46908 -0.8133,-5.42368 -2.2792,-6.48273 -1.6283,-1.1764 0.4609,3.7569 0.4047,3.87744 -0.9838,2.10959 -1.3908,-1.77067 -1.4429,-1.66632 -0.9376,1.875 0.6915,4.84632 6.5826,17.34375 8.1755,17.34375 0.6741,0 1.9302,-0.77847 2.7913,-1.72994 z m -2.621,-1.74525 c -0.5087,-1.33613 -0.401,-1.44381 0.5248,-0.52481 0.6407,0.63594 0.9288,1.39241 0.6402,1.68106 -0.2887,0.28864 -0.8129,-0.23167 -1.165,-1.15625 z m -4.1122,-5.80357 c -2.2832,-4.06229 -2.4524,-4.78374 -1.1222,-4.78374 0.5059,0 1.1968,1.16016 1.5355,2.57812 0.3388,1.41797 1.0398,3.11566 1.5578,3.77266 0.5179,0.657 0.7458,1.39055 0.5062,1.63014 -0.2396,0.23958 -1.3544,-1.19915 -2.4773,-3.19718 z m -72.9402,-2.79155 c -0.3295,-1.64713 -0.7944,-2.79938 -1.0333,-2.56053 -0.2388,0.23885 -0.143,1.76022 0.213,3.38084 0.8445,3.84482 1.6019,3.08742 0.8203,-0.82031 z m 45.1172,-2.92969 c -0.3187,-0.51563 -1.2122,-0.9375 -1.9857,-0.9375 -0.7734,0 -1.1455,0.42187 -0.8268,0.9375 0.3186,0.51562 1.2121,0.9375 1.9856,0.9375 0.7734,0 1.1455,-0.42188 0.8269,-0.9375 z m -13.9641,-0.97492 c 1.4103,-0.5362 4.3909,-1.01158 6.6235,-1.0564 2.2326,-0.0448 4.0593,-0.34438 4.0593,-0.6657 -10e-5,-0.64581 -6.1714,-5.74048 -6.9537,-5.74048 -0.2702,0 -2.5076,1.89129 -4.972,4.20287 -4.5603,4.27767 -4.1646,5.31561 1.2429,3.25971 z m -30.1164,-3.94696 c -0.851,-4.07915 -6.2624,-13.74588 -9.2756,-16.56966 -1.3339,-1.25004 -2.4252,-1.85093 -2.4252,-1.3353 0,0.51562 1.0547,1.92832 2.3438,3.13934 1.289,1.21102 2.3437,2.55922 2.3437,2.99602 0,0.4368 1.012,2.36716 2.2489,4.2897 1.2369,1.92255 2.7982,5.07756 3.4696,7.01115 1.5015,4.32447 2.1481,4.55852 1.2948,0.46875 z m 48.9522,-9.375 c 0.5686,-3.22265 1.3543,-6.65521 1.7461,-7.62792 1.025,-2.5453 -0.5464,-1.70199 -5.6652,3.04016 l -4.4084,4.08409 3.0837,3.18153 c 1.696,1.74984 3.3371,3.18152 3.6468,3.18152 0.3097,0 1.0284,-2.63672 1.597,-5.85938 z m 55.9819,-2.92726 c -0.3673,-0.95726 0.1802,-1.17572 2.1389,-0.85336 l 2.6325,0.43328 -3.0696,-1.95914 c -4.697,-2.99787 -6.1563,-2.30977 -3.9287,1.85249 1.0993,2.05419 2.9842,2.49998 2.2269,0.52673 z M 1035.6817,251.25 c -1.311,-1.03125 -2.739,-1.86097 -3.1733,-1.84381 -1.1145,0.0441 3.428,3.71881 4.5969,3.71881 0.528,0 -0.1125,-0.84375 -1.4236,-1.875 z m 9.6197,0.23437 c -0.011,-0.71048 -8.2204,-6.74307 -13.5198,-9.93505 l -2.8753,-1.73194 2.3437,2.00816 c 5.7873,4.95859 12.7174,10.32338 13.3594,10.34179 0.3867,0.0111 0.6981,-0.29624 0.692,-0.68296 z m 125.6361,-0.60282 c 0,-0.71827 -0.6673,-1.56202 -1.4829,-1.875 -2.1289,-0.81693 -3.2046,-0.70312 -3.2046,0.33903 0,0.49944 0.706,0.63714 1.569,0.30599 1.1887,-0.45613 1.423,-0.22174 0.9669,0.96692 -0.3945,1.02808 -0.1274,1.56901 0.7748,1.56901 0.7572,0 1.3768,-0.58768 1.3768,-1.30595 z m -134.0741,-2.20968 c -0.01,-0.38671 -1.483,-1.65622 -3.2813,-2.82111 -1.7983,-1.1649 -3.2696,-1.73367 -3.2696,-1.26394 0,0.46973 1.3711,1.73213 3.0469,2.80532 3.4604,2.2161 3.5198,2.2378 3.504,1.27973 z m 128.922,-2.11599 c 0.7721,-1.24931 -1.9187,-2.23369 -3.9623,-1.4495 -1.3829,0.53068 -1.4164,0.74459 -0.2344,1.49219 1.812,1.14588 3.4725,1.12898 4.1967,-0.0427 z m -138.637,-4.87415 c -3.248,-2.42084 -24.7566,-14.80866 -25.7003,-14.80207 -1.0438,0.007 4.8379,4.61128 5.9393,4.64913 0.5397,0.0186 1.8053,0.68523 2.8125,1.48153 2.6995,2.13418 17.6152,10.63272 18.7063,10.6583 0.5157,0.0121 -0.2754,-0.882 -1.7578,-1.98689 z m 161.9923,1.36514 c 0.3867,-0.38671 1.0898,-0.75585 1.5624,-0.82031 2.0827,-0.28399 2.1908,-0.42761 0.9253,-1.22847 -1.107,-0.70056 -0.903,-1.42149 1.1719,-4.14184 1.3818,-1.81151 2.5122,-3.50028 2.5122,-3.75284 0,-0.78545 -5.2835,-5.7873 -8.0995,-7.66783 -7.7573,-5.18009 -11.6977,-6.33799 -21.9005,-6.43537 -8.3533,-0.0797 -10.6954,0.24755 -15.4688,2.16159 -7.8648,3.15371 -8.3024,3.9386 -1.8339,3.28969 12.6221,-1.26624 29.41,5.72789 36.3257,15.13389 3.134,4.26249 3.6397,4.62685 4.8052,3.46149 z m -160.7032,-3.48264 c 0,-0.23967 -0.9492,-0.94155 -2.1094,-1.55974 -1.9127,-1.01917 -1.9894,-0.97854 -0.8227,0.43577 1.198,1.45221 2.9321,2.11696 2.9321,1.12397 z m -8.5156,-5.53711 c -1.4223,-1.26663 -14.3255,-8.06106 -14.6646,-7.72193 -0.7748,0.77484 11.6015,8.04045 13.7271,8.05851 0.7304,0.007 1.1523,-0.14524 0.9375,-0.33658 z m -20.13074,-9.29497 c -0.25444,-0.66296 -1.27247,-1.20537 -2.26247,-1.20537 -1.36022,0 -1.5555,0.29441 -0.7995,1.20537 0.55022,0.66294 1.56834,1.20535 2.26247,1.20535 0.69412,0 1.05384,-0.54241 0.7995,-1.20535 z M 986.25,217.5 c -1.836,-1.1865 -3.07706,-1.1865 -2.34375,0 0.31866,0.51562 1.29281,0.93104 2.16469,0.92315 1.36622,-0.0124 1.39097,-0.13996 0.17906,-0.92315 z m -24.45309,-13.43495 c -1.51407,-1.2013 -13.04691,-7.17579 -13.04691,-6.7588 0,1.02005 9.87197,6.97454 11.64066,7.02127 0.98822,0.0262 1.62103,-0.092 1.40625,-0.26247 z M 834.375,199.6875 c 1.28906,-1.00832 3.06879,-1.84268 3.95496,-1.85415 3.1027,-0.0401 -0.43997,-5.68713 -5.0699,-8.08135 -2.28565,-1.18197 -2.95391,-1.08606 -7.03346,1.00936 l -4.50785,2.31541 4.09916,0.0241 c 3.53612,0.0208 3.93886,0.21727 2.93209,1.43036 -0.6419,0.77344 -1.77314,1.40625 -2.51387,1.40625 -0.74074,0 -1.06113,0.46222 -0.71198,1.02715 0.34915,0.56492 2.06154,0.86057 3.80533,0.657 4.02114,-0.46945 4.08393,0.82186 0.12365,2.54316 l -3.04688,1.3243 2.8125,0.0159 c 1.54688,0.008 3.86719,-0.80914 5.15625,-1.81746 z m 118.59375,-3.38585 c -3.30197,-2.5557 -11.33672,-6.38182 -9.98737,-4.75599 1.12903,1.36042 10.12537,6.30698 11.34328,6.23703 0.28556,-0.0164 -0.32466,-0.68287 -1.35591,-1.48104 z m -7.4295,-1.18765 c -0.69319,-1.12158 -7.14647,-4.13178 -7.69078,-3.58746 -0.55929,0.55927 5.34787,4.23047 6.97247,4.33329 0.675,0.0428 0.99815,-0.2929 0.71831,-0.74583 z m -5.64975,-5.66498 c -0.67931,-1.0992 -17.56516,-10.52336 -18.02729,-10.06123 -0.52659,0.5266 1.49971,1.93847 7.66904,5.3436 10.74,5.9279 11.24972,6.16003 10.35825,4.71763 z m -13.10081,-4.64835 c -0.28021,-0.45339 -1.46527,-1.06522 -2.63346,-1.35963 -2.04915,-0.51642 -2.05986,-0.48738 -0.30417,0.82434 2.01544,1.50578 3.73058,1.8183 2.93763,0.53529 z m -6.63702,-6.68309 c -0.31616,-0.51154 -1.02346,-0.93008 -1.57179,-0.93008 -0.58982,0 -0.4715,0.64597 0.28971,1.58178 1.13661,1.39731 1.07987,1.50414 -0.48657,0.91604 -1.5337,-0.57581 -1.60653,-0.46489 -0.53917,0.82121 1.1202,1.34976 1.31012,1.35105 2.05835,0.0141 0.45335,-0.8101 0.56561,-1.89145 0.24947,-2.40299 z m -4.21417,0.57647 c 0,-0.20265 -0.65472,-0.61968 -1.45494,-0.92676 -0.8343,-0.32015 -1.21062,-0.16299 -0.88217,0.36844 0.55055,0.89083 2.33711,1.31761 2.33711,0.55832 z m -5.1177,-3.31918 c -0.33988,-0.54993 -1.54228,-0.99365 -2.67201,-0.98605 -1.96996,0.0132 -1.95809,0.0644 0.28971,1.24897 2.57307,1.35601 3.33114,1.27235 2.3823,-0.26292 z m 4.92676,-0.0198 c -0.62938,-1.0078 -1.32589,-1.65081 -1.54779,-1.42891 -0.40181,0.40181 1.64131,3.26127 2.33022,3.26127 0.19904,0 -0.15305,-0.82456 -0.78243,-1.83236 z m -15.68326,-4.61186 c -0.56437,-1.05453 -2.52673,-2.62941 -4.36082,-3.49974 -2.06717,-0.98094 -2.9231,-1.83679 -2.25184,-2.25167 0.69778,-0.43125 0.38791,-0.85096 -0.87139,-1.18028 -1.07484,-0.28103 -1.95425,-0.14186 -1.95425,0.3093 0,0.45117 -0.63281,0.57748 -1.40625,0.28069 -0.77344,-0.29681 -1.40625,-0.29411 -1.40625,0.006 0,0.66138 7.92322,4.34248 9.34677,4.34248 0.55668,0 1.43537,1.1132 1.95266,2.47378 0.51729,1.36057 1.17385,2.24045 1.45901,1.95528 0.28516,-0.28516 0.0567,-1.38126 -0.50764,-2.43578 z m 2.7492,0.35052 c -0.66258,-0.79836 -1.41562,-1.24062 -1.67344,-0.98281 -0.25781,0.25781 0.0733,1.12195 0.73594,1.92031 0.66258,0.79836 1.41562,1.24062 1.67344,0.98281 0.25781,-0.25781 -0.0733,-1.12195 -0.73594,-1.92031 z m 5.15625,0.46875 c -0.31867,-0.51563 -1.00128,-0.9375 -1.5169,-0.9375 -0.51563,0 -0.67677,0.42187 -0.3581,0.9375 0.31867,0.51562 1.00128,0.9375 1.5169,0.9375 0.51563,0 0.67677,-0.42188 0.3581,-0.9375 z m 4.78785,-0.82661 c -0.87808,-0.97027 -2.01949,-3.29602 -2.53645,-5.16835 -0.81519,-2.95234 -1.77365,-3.81932 -7.22068,-6.53144 -3.45439,-1.71997 -9.44478,-4.30237 -13.31197,-5.73867 -3.86719,-1.4363 -8.29688,-3.1373 -9.84375,-3.77999 -1.54688,-0.6427 -6.29861,-2.35942 -10.55943,-3.81492 l -7.74693,-2.64638 -1.36006,1.94176 c -0.74804,1.06797 -2.63107,2.19597 -4.18453,2.50666 -3.98329,0.79666 -11.90089,-1.98381 -14.52315,-5.10019 l -2.18012,-2.59092 -5.97289,1.99205 c -4.72877,1.57711 -8.35337,2.00336 -17.40132,2.04639 -13.28448,0.0632 -12.56475,0.73056 2.52218,2.33873 14.8442,1.5823 43.4407,5.48798 49.6875,6.78627 7.37631,1.53304 21.77405,7.3268 34.48109,13.87546 6.0273,3.10621 11.13609,5.64765 11.35287,5.64765 0.21678,0 -0.32429,-0.79386 -1.20236,-1.76411 z m 11.0275,-1.28277 c 1.10091,-4.108 0.62628,-6.01104 -1.77167,-7.10361 -3.00046,-1.36711 -4.75752,-5.5885 -3.30256,-7.93452 1.17311,-1.89153 0.56151,-3.47749 -1.34103,-3.47749 -1.57719,0 -32.18231,-13.11951 -45.53786,-19.52073 -5.43827,-2.60653 -11.01217,-4.88972 -12.38642,-5.07376 -3.94301,-0.52804 -3.96394,-1.38426 -0.0823,-3.36535 1.98357,-1.01235 4.37153,-2.68661 5.30659,-3.72057 1.64938,-1.82384 1.63616,-1.92473 -0.44298,-3.38101 -3.16941,-2.21995 -8.88998,-1.8761 -13.4732,0.80985 -4.01376,2.35221 -6.02443,2.24297 -3.98332,-0.21642 0.91344,-1.10064 0.68264,-1.68375 -1.21297,-3.06462 -1.28759,-0.93794 -4.36735,-4.23166 -6.84392,-7.31938 -5.057,-6.304919 -9.10881,-8.632151 -11.94507,-6.860876 C 825.134,100.2447 825,100.00793 825,96.101691 825,93.299641 824.59684,91.875 823.80388,91.875 c -0.65787,0 -4.26965,1.912706 -8.02617,4.250456 -5.58749,3.477197 -7.3739,4.151844 -9.8195,3.708366 -2.5072,-0.454641 -3.43034,-0.06881 -5.72239,2.391858 -5.42172,5.82052 -5.77537,5.90706 -19.52933,4.77867 -6.83388,-0.56066 -18.75336,-1.24362 -26.48774,-1.51768 -7.73437,-0.27407 -18.91406,-0.91727 -24.84375,-1.42934 -27.25734,-2.35385 -34.10865,-2.26962 -49.21875,0.60515 l -14.0625,2.67547 -42.1875,-0.15686 c -37.28543,-0.13861 -43.98492,-0.39269 -57.65625,-2.18655 -20.72205,-2.719 -32.95418,-2.90504 -38.14878,-0.58019 -2.16055,0.96697 -4.14867,2.33244 -4.41803,3.03438 -0.97384,2.53779 3.56662,5.74407 11.62931,8.21214 18.7772,5.74787 48.83542,6.65715 80.625,2.43894 7.87186,-1.04453 32.8859,-3.45775 43.125,-4.16048 4.38281,-0.30079 11.76562,-0.99798 16.40625,-1.5493 10.6683,-1.26741 38.08235,-1.2297 51.5625,0.071 5.67187,0.54726 16.64062,1.615 24.375,2.37278 7.73437,0.75778 17.26722,1.38644 21.18411,1.39701 3.91687,0.0106 11.01264,0.29543 15.76835,0.633 8.52347,0.60502 8.63876,0.64562 8.0861,2.84763 -0.96131,3.83018 1.14642,9.27509 4.84876,12.5258 6.02774,5.29242 10.85258,6.88129 20.89393,6.88063 8.04947,-5.5e-4 9.33511,-0.25171 13.36427,-2.61085 2.45192,-1.43564 4.99485,-3.37667 5.65096,-4.31341 0.65612,-0.93673 2.02501,-1.84864 3.04198,-2.02648 1.9996,-0.34966 2.24951,1.21103 0.954,5.95762 -0.88309,3.2355 2.82543,7.3128 6.65137,7.3128 3.47491,0 6.89992,-3.39042 6.89992,-6.83025 0,-2.61618 0.15673,-2.72402 3.1443,-2.16355 3.39887,0.63764 35.69822,13.52089 47.06775,18.77394 5.88843,2.72061 6.97545,3.57923 6.97545,5.50974 0,3.40651 2.59523,10.11936 4.45938,11.53465 2.26814,1.72201 2.73911,1.60953 3.38722,-0.80891 z M 814.21875,132.39043 c -3.58896,-0.72444 -8.7509,-6.7655 -9.74608,-11.4059 -1.92588,-8.98004 2.4733,-16.79639 11.09626,-19.71555 7.81719,-2.64638 11.85492,-0.28001 16.35008,9.58219 1.38241,3.03296 1.43777,4.04447 0.40921,7.4775 -0.6542,2.18354 -1.87278,4.61302 -2.70792,5.39883 -0.83515,0.78581 -2.98201,2.80689 -4.7708,4.49128 -3.41389,3.21468 -7.47557,4.80854 -10.63075,4.17165 z m 3.96485,-8.26934 c -0.31153,-0.31152 -1.12013,-0.34482 -1.79688,-0.074 -0.74787,0.29927 -0.52573,0.52142 0.56641,0.5664 0.98827,0.0407 1.54199,-0.18087 1.23047,-0.49239 z m 6.61754,-1.95831 c 4.61743,-2.65005 6.2509,-9.64493 3.14734,-13.47765 l -1.739,-2.14758 -0.66911,3.68434 c -0.36801,2.0264 -1.67149,5.8992 -2.89663,8.60624 -2.40387,5.31154 -2.1015,5.77891 2.1574,3.33465 z M 815.625,120.9375 c 0,-0.51563 -0.38738,-0.9375 -0.86082,-0.9375 -0.47346,0 -1.52815,-0.25607 -2.34375,-0.56905 -0.81562,-0.31298 -1.48293,-0.13298 -1.48293,0.40001 0,0.8377 1.45395,1.54391 3.98437,1.93529 0.38672,0.0598 0.70313,-0.31313 0.70313,-0.82875 z m -1.80795,-4.30037 c -2.28343,-0.71636 -4.34858,-1.10559 -4.58923,-0.86495 -0.68994,0.68994 3.80848,2.23745 6.39718,2.20071 1.68178,-0.0239 1.17114,-0.40115 -1.80795,-1.33576 z M 817.5,114.43211 c -0.77344,-0.45285 -3.09375,-1.07329 -5.15625,-1.37877 l -3.75,-0.5554 2.8125,1.365 c 3.10934,1.50905 8.57015,2.01912 6.09375,0.56917 z m 0.9375,-2.74695 c 0,-0.86286 -6.63747,-2.23519 -7.3525,-1.52015 -0.54741,0.5474 3.59826,2.19901 5.71187,2.27556 0.90235,0.0327 1.64063,-0.30724 1.64063,-0.75541 z m 0.36845,-3.48059 c 0.7793,-2.03083 0.80155,-1.98758 -1.30595,-2.53871 -2.04664,-0.53521 -2.59377,0.71402 -0.70313,1.60537 0.64454,0.30387 0.0117,0.33099 -1.40625,0.0603 -1.41796,-0.27073 -2.57812,-0.0917 -2.57812,0.39794 0,0.48958 0.94922,1.07297 2.10937,1.29644 1.16016,0.22345 2.38065,0.46373 2.7122,0.53395 0.33156,0.0702 0.8589,-0.53964 1.17188,-1.35526 z m 3.49788,-1.57957 c -0.92589,-0.919 -1.03357,-0.81132 -0.52481,0.52481 0.35206,0.92458 0.87627,1.44489 1.16492,1.15625 0.28865,-0.28865 6e-4,-1.04512 -0.64011,-1.68106 z m 2.01089,-4.11494 c -0.63472,-0.2568 -1.90034,-0.27243 -2.8125,-0.0347 -0.91216,0.23769 -0.39285,0.4478 1.15403,0.46691 1.54687,0.0191 2.29318,-0.17537 1.65847,-0.43218 z M 888.75,166.875 c -1.83597,-1.1865 -3.07704,-1.1865 -2.34375,0 0.31867,0.51562 1.29279,0.93104 2.16471,0.92315 1.36619,-0.0124 1.39094,-0.13996 0.17904,-0.92315 z m 62.12653,-0.72093 c -3.16331,-2.27007 -4.74525,-3.78676 -5.66644,-5.43287 -1.16503,-2.08177 -12.93639,-3.78168 -14.90032,-2.15176 -1.95797,1.62497 -1.49008,3.21063 1.79966,6.09907 2.88196,2.5304 3.51739,2.67524 11.73594,2.67524 7.26647,0 8.41763,-0.19477 7.03116,-1.18968 z m -85.81793,-2.65798 c -0.31153,-0.31152 -1.12013,-0.34482 -1.79688,-0.074 -0.74787,0.29927 -0.52573,0.52142 0.56641,0.5664 0.98827,0.0407 1.54199,-0.18087 1.23047,-0.49239 z m 16.1914,0.207 c 0,-0.19767 -0.84433,-0.5802 -1.87629,-0.85007 -1.03197,-0.26986 -1.63988,-0.10813 -1.35092,0.35941 0.50461,0.81648 3.22721,1.23041 3.22721,0.49066 z m 5.22619,-0.46492 c -0.28021,-0.45339 -1.46527,-1.06522 -2.63346,-1.35963 -2.04915,-0.51642 -2.05986,-0.48738 -0.30417,0.82434 2.01544,1.50578 3.73058,1.8183 2.93763,0.53529 z m -25.16759,-0.67958 c -0.31152,-0.31152 -1.12013,-0.34482 -1.79688,-0.074 -0.74787,0.29927 -0.52573,0.52142 0.56641,0.5664 0.98827,0.0407 1.54199,-0.18087 1.23047,-0.49239 z m 12.04259,-2.13292 c -0.70048,-1.13341 -4.28869,-1.99655 -4.28869,-1.03164 0,0.42954 0.73828,0.97392 1.64062,1.20972 2.7291,0.7132 3.18016,0.68286 2.64807,-0.17808 z M 832.03125,159.375 c -2.61663,-1.1244 -5.38242,-1.1244 -4.6875,0 0.31867,0.51562 1.92561,0.90785 3.57096,0.8716 2.52169,-0.0555 2.69705,-0.19243 1.11654,-0.8716 z m 78.75,0 c 0.31867,-0.51563 -0.1032,-0.9375 -0.9375,-0.9375 -0.8343,0 -1.25617,0.42187 -0.9375,0.9375 0.31867,0.51562 0.74055,0.9375 0.9375,0.9375 0.19695,0 0.61883,-0.42188 0.9375,-0.9375 z m 15,0 c 1.56233,-0.67135 1.35769,-0.8167 -1.22721,-0.8716 -1.84322,-0.0392 -2.86706,0.31457 -2.52279,0.8716 0.67546,1.09292 1.20665,1.09292 3.75,0 z m -101.25,-0.9375 c -1.03125,-0.44315 -2.50781,-0.80572 -3.28125,-0.80572 -0.88639,0 -0.7131,0.29786 0.46875,0.80572 1.03125,0.44315 2.50781,0.80572 3.28125,0.80572 0.88639,0 0.7131,-0.29786 -0.46875,-0.80572 z m 27.40235,-0.56641 c -0.31153,-0.31152 -1.12013,-0.34482 -1.79688,-0.074 -0.74787,0.29927 -0.52573,0.52142 0.56641,0.5664 0.98827,0.0407 1.54199,-0.18087 1.23047,-0.49239 z m 15.2539,0.15299 c 0,-0.22738 -0.42188,-0.67415 -0.9375,-0.99283 -0.51563,-0.31868 -0.9375,-0.13264 -0.9375,0.41342 0,0.54605 0.42187,0.99283 0.9375,0.99283 0.51562,0 0.9375,-0.18604 0.9375,-0.41342 z m -10.78125,-1.46158 c -1.03125,-0.44315 -2.50781,-0.80572 -3.28125,-0.80572 -0.88639,0 -0.7131,0.29786 0.46875,0.80572 1.03125,0.44315 2.50781,0.80572 3.28125,0.80572 0.88639,0 0.7131,-0.29786 -0.46875,-0.80572 z m 15,0 c -0.31867,-0.51563 -1.00128,-0.9375 -1.5169,-0.9375 -0.51563,0 -0.67677,0.42187 -0.3581,0.9375 0.31867,0.51562 1.00128,0.9375 1.5169,0.9375 0.51563,0 0.67677,-0.42188 0.3581,-0.9375 z m -56.25,-1.875 c -0.31867,-0.51563 -0.97639,-0.9375 -1.46158,-0.9375 -0.4852,0 -0.88217,0.42187 -0.88217,0.9375 0,0.51562 0.65771,0.9375 1.46158,0.9375 0.80387,0 1.20084,-0.42188 0.88217,-0.9375 z m 34.47097,0.32256 c -0.63472,-0.2568 -1.90034,-0.27243 -2.8125,-0.0348 -0.91216,0.2377 -0.39285,0.44781 1.15403,0.46692 1.54687,0.0191 2.29318,-0.17537 1.65847,-0.43218 z m 75.68528,-0.16631 c 0,-1.32093 -1.05599,-1.92693 -2.43541,-1.3976 -1.95651,0.75078 -1.5892,2.17885 0.56041,2.17885 1.03125,0 1.875,-0.35156 1.875,-0.78125 z m -116.01563,-0.77714 c -0.64453,-0.26007 -1.69921,-0.26007 -2.34375,0 -0.64453,0.26007 -0.11718,0.47287 1.17188,0.47287 1.28906,0 1.81641,-0.2128 1.17187,-0.47287 z m 49.37501,0.2868 c -0.21485,-0.18375 -1.86719,-0.60503 -3.67188,-0.93619 -2.30852,-0.4236 -2.86436,-0.32882 -1.875,0.31973 1.27091,0.83312 6.47665,1.41167 5.54688,0.61646 z m -35.625,-0.93947 c -0.97751,-0.84093 -7.41507,-1.34888 -6.91881,-0.54591 0.2998,0.48509 2.06707,0.88197 3.92726,0.88197 1.86019,0 3.20639,-0.15123 2.99155,-0.33606 z M 813.75,152.45309 c 0,-0.19767 -0.84375,-0.58005 -1.875,-0.84973 -1.03125,-0.26968 -1.875,-0.10794 -1.875,0.35941 0,0.46735 0.84375,0.84973 1.875,0.84973 1.03125,0 1.875,-0.16174 1.875,-0.35941 z m 31.40625,-0.57809 c -0.31867,-0.51563 -1.29279,-0.93104 -2.16471,-0.92315 -1.36619,0.0124 -1.39094,0.13996 -0.17904,0.92315 1.83597,1.1865 3.07704,1.1865 2.34375,0 z m -121.64063,-0.64625 c -0.90234,-0.2358 -2.3789,-0.2358 -3.28125,0 -0.90234,0.23581 -0.16406,0.42875 1.64063,0.42875 1.80469,0 2.54297,-0.19294 1.64062,-0.42875 z M 823.125,150.9375 c -0.77344,-0.49984 -2.46094,-0.8856 -3.75,-0.85725 -2.14648,0.0472 -2.18593,0.11935 -0.46875,0.85725 1.03125,0.44315 2.71875,0.82891 3.75,0.85725 1.54756,0.0426 1.62942,-0.10717 0.46875,-0.85725 z m -114.6289,-0.56641 c -0.31153,-0.31152 -1.12013,-0.34482 -1.79688,-0.074 -0.74787,0.29927 -0.52573,0.52142 0.56641,0.5664 0.98827,0.0407 1.54199,-0.18087 1.23047,-0.49239 z M 830.625,150 c -1.84699,-1.19362 -4.01894,-1.19362 -3.28125,0 0.31867,0.51562 1.50373,0.93104 2.63346,0.92315 1.6699,-0.0117 1.79105,-0.18432 0.64779,-0.92315 z m 99.79291,-2.47494 c 0.76662,-3.05448 -0.009,-4.09051 -3.05137,-4.07321 -3.06749,0.0174 -4.2443,0.74343 -5.70705,3.52065 -1.57746,2.99503 -0.86213,3.57061 3.96088,3.18702 3.56565,-0.28358 4.3101,-0.69239 4.79754,-2.63446 z m -316.87156,-0.91877 c -2.46103,-0.65561 -12.60885,-0.83148 -12.60885,-0.21853 0,0.78758 10.0121,1.49854 12.1401,0.86207 0.74737,-0.22354 0.9583,-0.51314 0.46875,-0.64354 z m 10.3599,0.58121 c -2.56067,-1.10035 -3.28125,-1.10035 -3.28125,0 0,0.51562 1.16016,0.90785 2.57812,0.8716 2.28454,-0.0584 2.36461,-0.15764 0.70313,-0.8716 z m 5.39062,0.31661 c -0.64453,-0.26007 -1.69921,-0.26007 -2.34375,0 -0.64453,0.26007 -0.11718,0.47287 1.17188,0.47287 1.28906,0 1.81641,-0.2128 1.17187,-0.47287 z m 58.57423,0.0545 c -0.31153,-0.31152 -1.12013,-0.34482 -1.79688,-0.074 -0.74787,0.29927 -0.52573,0.52142 0.56641,0.5664 0.98827,0.0407 1.54199,-0.18087 1.23047,-0.49239 z m 6.13112,-0.0486 c -0.63472,-0.2568 -1.90035,-0.27243 -2.8125,-0.0348 -0.91216,0.23769 -0.39285,0.4478 1.15403,0.46691 1.54687,0.0191 2.29318,-0.17537 1.65847,-0.43218 z m 47.16395,-0.20537 c -0.27883,-0.45117 -1.57705,-0.82031 -2.88492,-0.82031 -1.30787,0 -2.60609,0.36914 -2.88492,0.82031 -0.27884,0.45117 1.01937,0.82031 2.88492,0.82031 1.86555,0 3.16376,-0.36914 2.88492,-0.82031 z m -74.82711,-0.76133 c -0.89634,-0.23464 -2.58384,-0.24315 -3.75,-0.0189 -1.16617,0.22424 -0.43281,0.41623 1.62969,0.42663 2.0625,0.0104 3.01664,-0.17307 2.12031,-0.40771 z m -76.39934,-0.9083 c -0.63472,-0.2568 -1.90035,-0.27243 -2.8125,-0.0348 -0.91216,0.23769 -0.39285,0.4478 1.15403,0.46691 1.54687,0.0191 2.29318,-0.17537 1.65847,-0.43218 z m 139.86897,-1.31676 c -0.6586,-1.06562 -3.24619,-1.17942 -3.24619,-0.14276 0,0.40589 0.85287,0.80224 1.89526,0.88075 1.0424,0.0786 1.65031,-0.25357 1.35093,-0.73799 z M 535.9961,143.80859 c -0.31153,-0.31152 -1.12013,-0.34482 -1.79688,-0.074 -0.74787,0.29927 -0.52573,0.52142 0.56641,0.5664 0.98827,0.0407 1.54199,-0.18087 1.23047,-0.49239 z m 17.8125,0 c -0.31153,-0.31152 -1.12013,-0.34482 -1.79688,-0.074 -0.74787,0.29927 -0.52573,0.52142 0.56641,0.5664 0.98827,0.0407 1.54199,-0.18087 1.23047,-0.49239 z m 35.8789,-0.37109 c 0,-0.51563 -1.89844,-0.9375 -4.21875,-0.9375 -2.74235,0 -4.22378,-0.41011 -4.2331,-1.17188 -0.01,-0.77925 -0.31493,-0.70073 -0.91147,0.23438 -0.7382,1.15715 -0.1129,1.50472 3.52998,1.96209 2.4349,0.30571 4.7435,0.62212 5.13021,0.70313 0.38672,0.081 0.70313,-0.2746 0.70313,-0.79022 z m 2.8125,0 c -0.96122,-0.62119 1.48646,-0.91333 7.73437,-0.92315 6.65624,-0.0104 9.16075,0.30417 9.21465,1.15752 0.0593,0.9375 0.16858,0.9375 0.54687,0 0.26007,-0.64453 2.23068,-1.23508 4.37911,-1.31234 2.96175,-0.10651 3.22621,-0.2216 1.09375,-0.47605 -10.03387,-1.19721 -11.31877,-1.52097 -8.90625,-2.24408 1.62555,-0.48723 1.82406,-0.73113 0.64779,-0.79595 -0.93277,-0.0514 -1.43521,-0.51533 -1.11654,-1.03095 0.3294,-0.53298 -0.47001,-0.9375 -1.85266,-0.9375 -2.14155,0 -2.31219,0.22397 -1.42859,1.875 0.96978,1.81205 0.69547,1.87928 -8.17014,2.00267 -5.04549,0.0702 -8.11892,0.32174 -6.82986,0.55895 1.28906,0.23719 2.68112,1.02349 3.09346,1.74733 0.41234,0.72382 1.25609,1.30959 1.875,1.3017 0.68832,-0.009 0.57922,-0.36726 -0.28096,-0.92315 z m 7.27656,0.29336 c -0.89634,-0.23464 -2.58384,-0.24316 -3.75,-0.0189 -1.16617,0.22425 -0.43281,0.41624 1.62969,0.42664 2.0625,0.0104 3.01664,-0.17307 2.12031,-0.40772 z m 113.42656,-0.002 c -0.90234,-0.2358 -2.3789,-0.2358 -3.28125,0 -0.90234,0.23581 -0.16406,0.42874 1.64063,0.42874 1.80469,0 2.54297,-0.19293 1.64062,-0.42874 z m 61.85548,0.0799 c -0.31153,-0.31152 -1.12013,-0.34482 -1.79688,-0.074 -0.74787,0.29927 -0.52573,0.52142 0.56641,0.5664 0.98827,0.0407 1.54199,-0.18087 1.23047,-0.49239 z m 27.91015,-0.37136 c -0.31867,-0.51563 -1.22767,-0.9375 -2.01998,-0.9375 -3.86227,0 -12.05583,-7.59655 -13.51281,-12.52822 l -1.1457,-3.87803 -6.66075,-0.18286 c -3.66342,-0.10057 -13.6217,-0.62762 -22.12951,-1.17121 -8.50781,-0.54359 -34.66406,-1.45947 -58.125,-2.0353 -43.06077,-1.05688 -49.6965,-0.91057 -97.96875,2.16015 -22.81383,1.45124 -41.76436,1.65124 -61.40625,0.64808 -15.13367,-0.77292 -16.80252,-1.03739 -21.51503,-3.40964 -6.64682,-3.34595 -7.85969,-5.32981 -4.7953,-7.84354 1.33094,-1.09178 3.48175,-1.80977 5.15625,-1.72128 4.45705,0.23554 4.63923,0.0869 2.27356,-1.85442 -2.97495,-2.44136 -1.74099,-4.4428 4.8047,-7.79311 4.67569,-2.39317 5.81521,-2.57245 15.88455,-2.49901 5.96614,0.0435 13.37877,0.45025 16.47252,0.90388 10.87222,1.59414 47.55515,3.65469 66.33347,3.72607 10.43847,0.0397 21.72122,0.0883 25.07278,0.10803 3.35156,0.0198 14.10937,-1.3079 23.90625,-2.9503 16.37383,-2.744993 18.94829,-2.941774 31.875,-2.436406 7.73437,0.302376 20.17969,1.177736 27.65625,1.945246 7.47656,0.7675 19.28906,1.41251 26.25,1.43334 6.96094,0.0208 17.01271,0.65713 22.33728,1.41398 10.89644,1.54885 11.627,1.36649 18.20966,-4.545516 l 3.5157,-3.157509 -34.92195,-0.611916 C 749.30862,95.883956 717.35156,95.397141 697.5,95.138691 c -19.85156,-0.258441 -47.48438,-0.90121 -61.40625,-1.42837 -50.8266,-1.924585 -84.37069,-2.773654 -127.5,-3.227286 C 454.22652,89.911204 406.3848,89.146095 387.1875,88.541443 379.19531,88.289716 353.25,87.670273 329.53125,87.164904 260.61563,85.696537 246.20467,85.353008 210.46875,84.326688 164.77965,83.014518 91.458322,82.596353 81.09375,83.58884 67.736705,84.867879 61.875,87.615748 61.875,92.598266 l 0,2.271428 14.765625,-0.660019 c 16.740329,-0.748282 30.731795,0.510178 38.195645,3.435516 6.10518,2.392819 23.27552,3.382989 70.78873,4.082189 19.85156,0.29212 42,0.69729 49.21875,0.90035 7.21875,0.20307 30.63281,0.82838 52.03125,1.38957 21.39844,0.5612 44.8125,1.44996 52.03125,1.97503 7.21875,0.52508 29.57812,1.16185 49.6875,1.41506 20.10937,0.2532 40.45812,0.69774 45.21944,0.98786 l 8.65694,0.52749 13.84306,8.43353 c 7.61368,4.63844 18.06181,11.29042 23.21806,14.7822 11.84057,8.01834 14.74228,9.51492 16.42821,8.47296 0.72452,-0.44778 3.8191,-0.56963 6.87681,-0.27076 4.03157,0.39405 5.37825,0.25014 4.90003,-0.52364 -0.3627,-0.58687 -2.00566,-1.12448 -3.65101,-1.1947 -2.36397,-0.10089 -2.52902,-0.21552 -0.78681,-0.54645 2.93135,-0.5568 6.92247,0.49567 6.21578,1.63911 -0.31327,0.50688 0.60418,0.90365 2.07103,0.89566 2.04479,-0.0112 2.31912,-0.2175 1.22721,-0.92315 -1.13715,-0.73488 -1.0026,-0.91153 0.70313,-0.92315 1.16015,-0.008 2.10937,-0.43623 2.10937,-0.95185 0,-1.24375 -18.45007,-1.24375 -19.21875,0 -0.97743,1.58152 -3.15834,1.04388 -4.28195,-1.05558 l -1.06667,-1.99309 14.86182,0.68599 c 8.17398,0.37729 14.54047,0.35519 14.14773,-0.0491 -0.39273,-0.40431 -2.92398,-0.84925 -5.625,-0.98877 -13.18227,-0.68092 -22.0271,-1.50439 -23.06796,-2.14768 -2.33503,-1.44313 1.34315,-2.79845 8.35517,-3.07869 l 6.98936,-0.27931 -5.625,-0.73145 c -3.09375,-0.4023 -7.3125,-1.12551 -9.375,-1.60714 -2.97236,-0.69412 -2.04303,-0.7945 4.48148,-0.48407 9.09295,0.43263 10.40232,-0.90469 1.83187,-1.87096 -2.95672,-0.33336 -6.43054,-0.96239 -7.7196,-1.39785 -1.8964,-0.64063 -1.3596,-0.82736 2.8125,-0.97835 l 5.15625,-0.1866 -3.98438,-0.95811 c -2.1914,-0.52697 -3.98437,-1.31199 -3.98437,-1.74449 0,-1.15963 8.67268,0.16689 10.3125,1.57733 3.81899,3.2848 19.89605,9.92866 28.59375,11.81639 9.07483,1.96958 11.44614,2.0389 74.0625,2.16493 38.58616,0.0776 71.49654,0.58206 81.5625,1.25005 9.28125,0.61592 24.25781,1.54769 33.28125,2.07061 44.34909,2.57006 83.05709,5.48846 85.13346,6.41867 0.15933,0.0714 0.029,-0.29209 -0.28971,-0.80771 z M 505.3125,142.5 c 0,-0.51563 -0.94922,-0.90785 -2.10938,-0.8716 -2.01271,0.0629 -2.02346,0.1028 -0.23437,0.8716 1.03125,0.44315 1.98047,0.83537 2.10937,0.8716 0.12891,0.0362 0.23438,-0.35598 0.23438,-0.8716 z m 9.62722,0.32256 c -0.63472,-0.2568 -1.90034,-0.27243 -2.8125,-0.0348 -0.91216,0.2377 -0.39285,0.44781 1.15403,0.46692 1.54687,0.0191 2.29318,-0.17537 1.65847,-0.43218 z m 63.28601,0.0906 c -0.28835,-0.28834 -1.92461,-0.70149 -3.63614,-0.9181 -4.88384,-0.61809 -59.1989,-2.38582 -59.64357,-1.94116 -0.64625,0.64626 11.97985,1.5436 33.02273,2.34694 27.54081,1.0514 30.85213,1.10748 30.25698,0.51232 z m 60.44614,-0.1539 c -1.67578,-0.20795 -4.41796,-0.20795 -6.09375,0 -1.67578,0.20797 -0.30468,0.37812 3.04688,0.37812 3.35156,0 4.72266,-0.17015 3.04687,-0.37812 z m 10.70313,-0.72806 c 0,-0.96946 -0.89785,-1.37247 -2.89063,-1.2975 -1.96627,0.074 -2.29104,0.25297 -1.01562,0.55975 1.03125,0.24805 2.27578,0.83192 2.76562,1.29749 1.14755,1.0907 1.14063,1.09409 1.14063,-0.55974 z M 683.4375,142.5 c 0,-0.51563 -1.16016,-0.89544 -2.57813,-0.84405 l -2.57812,0.0935 2.34375,0.75058 c 1.28906,0.41283 2.44922,0.79266 2.57812,0.84405 0.12891,0.0514 0.23438,-0.32843 0.23438,-0.84405 z m 13.125,0.57132 c 0,-0.75078 -6.69462,-1.116 -7.14349,-0.38972 -0.25694,0.41575 1.24523,0.7559 3.33816,0.7559 2.09293,0 3.80533,-0.16478 3.80533,-0.36618 z m -26.01563,-1.19221 c -0.64453,-0.26007 -1.69921,-0.26007 -2.34375,0 -0.64453,0.26007 -0.11718,0.47287 1.17188,0.47287 1.28906,0 1.81641,-0.2128 1.17187,-0.47287 z m 54.14063,-0.8947 c 0,-0.19767 -1.37109,-0.35295 -3.04688,-0.34506 -2.07153,0.01 -2.63852,0.27309 -1.77121,0.82259 1.16344,0.73716 4.81809,0.37493 4.81809,-0.47753 z M 623.90625,140.625 c 0.31867,-0.51563 0.13264,-0.9375 -0.41342,-0.9375 -0.54605,0 -0.99283,0.42187 -0.99283,0.9375 0,0.51562 0.18604,0.9375 0.41342,0.9375 0.22738,0 0.67416,-0.42188 0.99283,-0.9375 z m 12.63492,0.60698 c -0.75031,-0.74476 -9.40207,-1.28712 -9.8172,-0.61543 -0.21365,0.34571 2.00848,0.72552 4.93808,0.84404 2.9296,0.11852 5.1252,0.0157 4.87912,-0.22861 z m 77.45518,-0.4612 c -0.71824,-1.16214 -10.87135,-1.32057 -10.87135,-0.16963 0,0.55102 2.42451,0.96135 5.68033,0.96135 3.12418,0 5.46014,-0.35627 5.19102,-0.79172 z m -19.47066,-0.6201 c -0.26088,-0.26087 -4.23354,-0.70828 -8.82813,-0.99425 -5.9503,-0.37033 -7.94921,-0.23799 -6.94756,0.45997 1.37164,0.95577 16.71687,1.47547 15.77569,0.53428 z m -98.64401,-1.8423 c -0.11132,-0.75851 -0.53102,-1.70773 -0.93267,-2.10937 -0.40164,-0.40165 -0.58964,-0.11359 -0.41776,0.64012 0.21188,0.92914 -0.50633,1.3958 -2.23057,1.44932 -4.15838,0.12908 -4.19458,1.39905 -0.0399,1.39905 2.83179,0 3.77081,-0.35766 3.62089,-1.37912 z m 4.80192,0.81271 c -0.31152,-0.31152 -1.12013,-0.34482 -1.79688,-0.074 -0.74787,0.29927 -0.52573,0.52142 0.56641,0.5664 0.98827,0.0407 1.54199,-0.18087 1.23047,-0.49239 z m 12.4414,-1.56276 c 0.77344,-0.29442 0.0186,-0.56861 -1.67759,-0.60931 -2.58865,-0.0622 -2.88973,0.13513 -1.875,1.22849 0.66486,0.71637 1.41978,0.99056 1.67759,0.60932 0.25781,-0.38126 1.10156,-0.93407 1.875,-1.2285 z m 43.8086,1.56276 c -0.31153,-0.31152 -1.12013,-0.34482 -1.79688,-0.074 -0.74787,0.29927 -0.52573,0.52142 0.56641,0.5664 0.98827,0.0407 1.54199,-0.18087 1.23047,-0.49239 z m 11.75117,-0.0936 c -1.15307,-0.22253 -3.26245,-0.22829 -4.6875,-0.0128 -1.42506,0.21548 -0.48165,0.39755 2.09648,0.4046 2.57812,0.007 3.74408,-0.16928 2.59102,-0.3918 z M 525.9375,138.39054 c 0,-0.79583 -4.4643,-1.14485 -6.15818,-0.48144 -1.2809,0.50167 -0.64497,0.72839 2.1738,0.775 2.19141,0.0363 3.98438,-0.0959 3.98438,-0.29356 z m 5.39062,-0.28679 c -0.90234,-0.2358 -2.3789,-0.2358 -3.28125,0 -0.90234,0.23581 -0.16406,0.42875 1.64063,0.42875 1.80469,0 2.54297,-0.19294 1.64062,-0.42875 z m 108.76094,0.002 c -0.89634,-0.23465 -2.58384,-0.24316 -3.75,-0.0189 -1.16617,0.22424 -0.43281,0.41623 1.62969,0.42664 2.0625,0.0104 3.01664,-0.17307 2.12031,-0.40772 z m 6.08281,0.0233 c -0.64453,-0.26007 -1.69921,-0.26007 -2.34375,0 -0.64453,0.26007 -0.11718,0.47286 1.17188,0.47286 1.28906,0 1.81641,-0.21279 1.17187,-0.47286 z m 158.12501,-0.5819 c -0.21485,-0.1459 -1.23438,-0.88418 -2.26563,-1.64062 -1.73438,-1.2722 -1.7785,-1.25231 -0.58834,0.26528 0.70767,0.90234 1.72721,1.64063 2.26563,1.64063 0.53843,0 0.80318,-0.11939 0.58834,-0.26529 z m -289.14063,-5.2878 c -3.10882,-1.23851 -22.03125,-2.20122 -22.03125,-1.12087 0,1.00924 5.36954,1.56731 16.875,1.75384 4.32561,0.0701 6.30975,-0.17343 5.15625,-0.63297 z m -60.7541,-3.33577 c -0.10087,-0.0204 -1.08049,-0.78914 -2.17694,-1.70825 -1.71075,-1.43405 -2.0697,-1.47265 -2.53038,-0.27213 -0.34618,0.90211 -0.0981,1.23062 0.69846,0.92495 0.72753,-0.27918 1.47861,0.41481 1.82723,1.68837 0.48312,1.76489 0.75491,1.90888 1.47848,0.7833 0.4876,-0.7585 0.80402,-1.39582 0.70315,-1.41624 z M 434.0625,127.5 c -0.74357,-0.45955 -1.56289,-0.62461 -1.8207,-0.3668 -0.25781,0.25782 0.13963,0.84475 0.8832,1.3043 0.74357,0.45955 1.56289,0.62461 1.8207,0.3668 0.25781,-0.25782 -0.13963,-0.84475 -0.8832,-1.3043 z m 8.4375,-0.41342 c 0,-0.22738 -0.42188,-0.67415 -0.9375,-0.99283 -0.51563,-0.31868 -0.9375,-0.13264 -0.9375,0.41342 0,0.54605 0.42187,0.99283 0.9375,0.99283 0.51562,0 0.9375,-0.18604 0.9375,-0.41342 z m 5.625,-1.81554 c 0,-0.19467 -0.73828,-0.93296 -1.64063,-1.64063 -1.48693,-1.16613 -1.52009,-1.13297 -0.35396,0.35397 1.22472,1.56164 1.99459,2.05826 1.99459,1.28666 z M 441.5625,123.75 c 0,-0.51563 -0.44678,-0.9375 -0.99283,-0.9375 -0.54606,0 -0.73209,0.42187 -0.41342,0.9375 0.31867,0.51563 0.76545,0.9375 0.99283,0.9375 0.22738,0 0.41342,-0.42187 0.41342,-0.9375 z m -4.6875,-0.43577 c 0,-0.23967 -0.94922,-0.94155 -2.10938,-1.55974 -1.9127,-1.01917 -1.98941,-0.97854 -0.82271,0.43577 1.19797,1.45221 2.93209,2.11696 2.93209,1.12397 z m 15,0.0673 c 0,-0.20265 -0.65472,-0.61968 -1.45494,-0.92676 -0.8343,-0.32015 -1.21062,-0.16299 -0.88217,0.36844 0.55055,0.89083 2.33711,1.31761 2.33711,0.55832 z m 82.03125,-0.5646 c -1.03125,-0.44559 -2.71875,-0.83336 -3.75,-0.8617 -2.89772,-0.0797 -0.0808,1.35249 2.99937,1.5249 2.24783,0.12582 2.35584,0.0304 0.75063,-0.6632 z m 8.90625,0.57359 c 0,-0.19771 -1.05469,-0.56107 -2.34375,-0.80749 -1.28906,-0.24642 -2.34375,-0.0847 -2.34375,0.35945 0,0.44413 1.05469,0.8075 2.34375,0.8075 1.28906,0 2.34375,-0.16176 2.34375,-0.35946 z M 68.214055,122.16836 c -0.896331,-0.23464 -2.583831,-0.24316 -3.75,-0.0189 -1.166167,0.22424 -0.432805,0.41623 1.629695,0.42663 2.0625,0.0104 3.016638,-0.17307 2.120305,-0.40772 z M 416.5086,120.8211 c -0.46326,-0.46326 -15.16017,-1.2488 -32.65981,-1.74565 -17.49965,-0.49686 -42.99723,-1.32131 -56.66129,-1.83211 -29.80119,-1.11405 -40.31306,-1.02281 -40.311,0.3499 9.4e-4,0.66755 6.31891,1.08609 18.98438,1.25766 30.04883,0.40704 108.69892,2.97842 109.34801,3.57502 0.82342,0.75683 2.09333,-0.8112 1.29971,-1.60482 z m 110.1125,1.42499 c -0.31152,-0.31152 -1.12013,-0.34482 -1.79688,-0.074 -0.74787,0.29927 -0.52573,0.52142 0.56641,0.5664 0.98827,0.0407 1.54199,-0.18087 1.23047,-0.49239 z m 261.5625,0 c -0.31152,-0.31152 -1.12013,-0.34482 -1.79688,-0.074 -0.74787,0.29927 -0.52573,0.52142 0.56641,0.5664 0.98827,0.0407 1.54199,-0.18087 1.23047,-0.49239 z M 31.461441,120.46991 c 1.673165,-1.29185 1.479854,-1.35729 -2.398941,-0.81209 -6.035107,0.84831 -7.958521,2.15321 -3.226059,2.18867 2.092855,0.0157 4.624105,-0.60378 5.625,-1.37658 z M 420,120.46875 c 0,-0.77344 -0.42188,-1.40625 -0.9375,-1.40625 -0.51563,0 -0.9375,0.63281 -0.9375,1.40625 0,0.77344 0.42187,1.40625 0.9375,1.40625 0.51562,0 0.9375,-0.63281 0.9375,-1.40625 z m -138.75,-0.9375 c 0,-0.82387 0.85417,-1.40625 2.0625,-1.40625 1.2572,0 1.71475,-0.32954 1.17187,-0.84399 -0.48984,-0.4642 -10.0664,-1.05227 -21.28125,-1.30684 -17.03199,-0.38662 -20.39062,-0.2476 -20.39062,0.84399 0,1.07277 3.2743,1.30684 18.28125,1.30684 15.625,0 18.28125,0.20433 18.28125,1.40625 0,0.77344 0.42187,1.40625 0.9375,1.40625 0.51562,0 0.9375,-0.63281 0.9375,-1.40625 z m 27.42187,0.78536 c -0.64453,-0.26007 -1.69921,-0.26007 -2.34375,0 -0.64453,0.26007 -0.11718,0.47287 1.17188,0.47287 1.28906,0 1.81641,-0.2128 1.17187,-0.47287 z M 533.90625,120 c -0.31867,-0.51562 -2.55842,-0.96264 -4.97721,-0.99338 -2.41878,-0.0307 -6.50717,-0.40706 -9.08529,-0.83627 -2.57813,-0.42921 -4.86328,-0.61499 -5.07813,-0.41286 -0.96783,0.91057 1.20547,1.46558 8.4912,2.16846 11.37115,1.09701 11.28127,1.09639 10.64943,0.0741 z M 69.140625,119.35375 c -0.902344,-0.2358 -2.378906,-0.2358 -3.28125,0 -0.902344,0.23581 -0.164063,0.42875 1.640625,0.42875 1.804687,0 2.542969,-0.19294 1.640625,-0.42875 z M 239.55487,114.4894 c -1.42532,-1.40334 -1.64621,-1.38344 -2.86339,0.25809 -1.33146,1.79566 -1.07324,3.37751 0.55135,3.37751 0.48519,0 0.88217,-0.65771 0.88217,-1.46158 0,-2.22202 1.85662,-0.59845 2.00267,1.75129 0.11999,1.93043 0.15306,1.91987 0.54967,-0.17531 0.24808,-1.31047 -0.21457,-2.8561 -1.12247,-3.75 z M 23.90625,118.125 c -0.318674,-0.51562 -0.976384,-0.9375 -1.461578,-0.9375 -0.485195,0 -0.882172,0.42188 -0.882172,0.9375 0,0.51563 0.657711,0.9375 1.461578,0.9375 0.803868,0 1.200846,-0.42187 0.882172,-0.9375 z m 8.203125,-0.68445 C 33.011719,117.1811 33.75,116.59614 33.75,116.14066 c 0,-0.45548 0.84375,-0.82816 1.875,-0.82816 1.060372,0 1.875,-0.625 1.875,-1.43854 0,-1.18327 -0.827969,-1.32871 -4.665875,-0.81959 -4.445468,0.58971 -4.711181,0.49978 -5.625,-1.90374 -1.255368,-3.30187 -1.238739,-3.36903 0.6815,-2.75269 1.074329,0.34483 0.83163,-0.14352 -0.703125,-1.41483 -3.224741,-2.67118 -5.625,-2.56729 -5.625,0.24345 0,1.22461 -0.263672,3.54492 -0.585938,5.15625 -0.554045,2.77023 -0.429918,2.92969 2.280574,2.92969 2.076491,0 3.036455,0.53544 3.483133,1.9428 0.430784,1.35728 1.085548,1.74904 2.172552,1.29989 0.855761,-0.35361 2.29421,-0.8552 3.196554,-1.11464 z M 61.875,118.125 c 0,-0.51562 -0.186039,-0.9375 -0.413422,-0.9375 -0.227382,0 -0.674154,0.42188 -0.992828,0.9375 -0.318674,0.51563 -0.132634,0.9375 0.413422,0.9375 0.546055,0 0.992828,-0.42187 0.992828,-0.9375 z m 619.4178,-1.03236 c -1.12856,-0.65679 -2.50645,-0.67165 -4.21875,-0.0455 -2.34704,0.85826 -2.21802,0.93334 1.67595,0.97534 3.3577,0.0362 3.87669,-0.15355 2.5428,-0.92983 z M 73.804732,115.3125 c -0.10267,-1.36298 -0.790797,-1.85877 -2.519861,-1.81557 l -2.378621,0.0594 2.34375,0.97653 c 2.23299,0.93036 2.255142,1.01305 0.46875,1.74967 -1.804052,0.74391 -1.797388,0.77566 0.17611,0.83905 1.492148,0.0479 2.012621,-0.44507 1.909872,-1.8091 z m 35.370888,-3.88587 c -0.30359,-0.95652 -0.94542,-1.79186 -1.4263,-1.85632 -0.48087,-0.0644 -1.40166,-0.19729 -2.04619,-0.29519 -2.35423,-0.35759 -2.95932,0.81711 -0.69368,1.34668 1.83737,0.42948 2.40557,1.23631 2.66907,3.79004 0.31659,3.06817 0.38133,3.12245 1.19193,0.99916 0.47143,-1.23488 0.60877,-3.02785 0.30517,-3.98437 z m 339.45668,3.94824 c -0.33988,-0.54993 -1.43681,-0.99987 -2.43763,-0.99987 -1.00082,0 -1.81967,-0.36913 -1.81967,-0.8203 0,-0.45117 -4.74609,-0.73069 -10.54688,-0.62116 -5.80078,0.10952 -12.02307,-0.13344 -13.82729,-0.5399 -1.89956,-0.42794 -3.65569,-0.36378 -4.17188,0.15241 -1.24987,1.24988 -4.86002,1.10954 -7.21416,-0.28042 -1.58781,-0.9375 -2.06964,-0.9375 -2.40916,0 -0.23341,0.64453 -1.25787,1.17187 -2.27658,1.17187 -1.01872,0 -1.59147,-0.42187 -1.2728,-0.9375 0.34804,-0.56313 -0.84657,-0.93177 -2.99154,-0.92315 -2.6508,0.0107 -3.2086,0.24853 -2.16471,0.92315 1.09102,0.70507 0.77578,0.93973 -1.40625,1.04684 -7.28758,0.3577 -39.38008,-0.34472 -40.87343,-0.89462 -0.9275,-0.34153 7.67865,-0.50423 19.12478,-0.36155 13.14993,0.16393 20.32389,-0.0636 19.48754,-0.61785 -0.72798,-0.48251 -12.32954,-0.93377 -25.78125,-1.00282 -13.4517,-0.0691 -32.89514,-0.51994 -43.20764,-1.00198 -10.3125,-0.48204 -20.01562,-0.89225 -21.5625,-0.91158 -2.20278,-0.0276 -2.50764,-0.24053 -1.40625,-0.98252 1.02227,-0.68869 -0.002,-0.91589 -3.75,-0.83209 -2.83594,0.0634 -18.86719,-0.33637 -35.625,-0.88838 -16.75781,-0.55201 -42.70312,-1.23498 -57.65625,-1.5177 -14.95312,-0.28273 -40.7928,-0.97582 -57.42149,-1.54019 l -30.23399,-1.02614 -5.14707,2.08904 c -2.83089,1.14897 -4.936,2.43056 -4.67802,2.84797 0.94041,1.52163 17.21854,2.23507 74.04307,3.2452 40.25174,0.71552 72.82622,1.41379 87.65625,1.87898 50.55665,1.58592 65.48053,1.95802 127.96875,3.1907 20.87398,0.41178 36.70219,0.36816 36.88805,-0.10165 0.17904,-0.45261 0.82803,-0.40589 1.44219,0.10382 0.92279,0.76585 12.47328,1.89297 13.56052,1.32327 0.18053,-0.0946 0.0501,-0.62195 -0.28971,-1.17188 z m 78.71145,0.87513 c -0.31867,-0.51562 -1.92561,-0.88759 -3.57096,-0.82658 l -2.99154,0.11092 2.8125,0.71566 c 4.0773,1.03749 4.39121,1.03749 3.75,0 z M 58.725754,115.3125 c 0.761697,0 1.148647,-0.38227 0.859891,-0.84949 -0.288757,-0.46722 -1.368342,-0.62895 -2.399079,-0.35941 -1.047468,0.27392 -1.874066,0.0284 -1.874066,-0.55676 0,-0.57576 1.054687,-1.04684 2.34375,-1.04684 1.289062,0 2.34375,-0.42187 2.34375,-0.9375 0,-0.51562 -0.84375,-0.9375 -1.875,-0.9375 -1.03125,0 -1.875,-0.42187 -1.875,-0.9375 0,-0.54692 3.026998,-0.92508 7.265625,-0.90769 6.293415,0.0258 7.042942,0.19877 5.60144,1.29246 -1.536761,1.16596 -1.464978,1.3009 0.9375,1.7624 3.473363,0.6672 3.593915,0.35995 1.153758,-2.94054 -1.819715,-2.46129 -2.385397,-2.70033 -4.493615,-1.89878 -1.326508,0.50433 -3.907324,0.68569 -5.735145,0.40301 -3.893895,-0.60221 -6.202525,0.82963 -7.09942,4.40314 -0.746074,2.97259 0.175957,4.77148 2.072611,4.04366 0.763453,-0.29296 2.011303,-0.53266 2.773,-0.53266 z m 8.597847,-0.69236 c -0.363102,-1.88544 -3.332083,-2.73666 -4.716495,-1.35224 -1.409801,1.40979 -3.57e-4,2.9821 2.673214,2.9821 1.734349,0 2.274228,-0.43064 2.043281,-1.62986 z m 146.895149,0.69236 c 0.31868,-0.51562 0.23811,-0.96757 -0.17904,-1.00432 -0.41715,-0.0367 -2.23502,-0.2334 -4.03971,-0.43697 -1.80469,-0.20357 -22.89844,-0.84062 -46.875,-1.41566 -23.97656,-0.57504 -45.38889,-1.17835 -47.58295,-1.3407 -4.05221,-0.29983 -5.88926,0.78794 -4.19387,2.48333 0.56979,0.56979 14.79587,1.13385 36.43394,1.44456 19.52452,0.28037 35.67491,0.6667 35.88976,0.85851 0.93826,0.83767 30.0116,0.27732 30.54687,-0.58875 z M 85.546875,114.69161 c -0.644531,-0.26007 -1.699219,-0.26007 -2.34375,0 -0.644531,0.26007 -0.117188,0.47287 1.171875,0.47287 1.289062,0 1.816406,-0.2128 1.171875,-0.47287 z m 8.895703,0.0327 c 1.154363,-0.30939 1.867744,-0.93645 1.585303,-1.39345 -0.28245,-0.45701 0.671513,-0.85765 2.119913,-0.89035 5.942506,-0.13409 -1.807791,-1.82073 -11.192519,-2.43575 -10.497456,-0.68794 -12.077722,0.62083 -3.020049,2.5012 2.833893,0.58831 4.911014,1.46045 4.615825,1.93807 -0.603565,0.97659 2.706113,1.13404 5.891527,0.28028 z m 12.432422,0.17475 c 0,-0.22738 -0.42187,-0.67415 -0.9375,-0.99283 -0.51562,-0.31868 -0.9375,-0.13264 -0.9375,0.41342 0,0.54605 0.42188,0.99283 0.9375,0.99283 0.51563,0 0.9375,-0.18604 0.9375,-0.41342 z m 117.43972,-1.13902 c -0.63472,-0.2568 -1.90035,-0.27243 -2.8125,-0.0347 -0.91216,0.23769 -0.39285,0.4478 1.15403,0.46691 1.54687,0.0191 2.29318,-0.17537 1.65847,-0.43218 z M 51.5625,109.66686 c 0,-1.73715 8.696894,-6.54186 11.841263,-6.54186 4.150379,0 7.948212,1.56301 10.189987,4.19373 1.715499,2.01314 2.313627,2.13858 7.03125,1.47465 4.762252,-0.67022 15.814134,0.13352 19.96901,1.45221 1.34412,0.42661 1.68779,0.15519 1.43904,-1.1365 C 101.43834,106.02107 87.547348,102.15652 75,101.58833 69.070312,101.31982 63.027547,100.7231 61.571632,100.26228 58.464423,99.278812 24.375,101.20725 24.375,102.3665 c 0,0.41718 0.50726,0.7585 1.127243,0.7585 0.619984,0 2.479877,1.31103 4.133097,2.91338 1.653219,1.60237 4.415491,3.24669 6.138381,3.65404 4.699346,1.11111 15.788779,1.09315 15.788779,-0.0256 z m 293.67187,-1.60331 c -2.1914,-0.19737 -5.77734,-0.19737 -7.96875,0 -2.1914,0.19738 -0.39843,0.35888 3.98438,0.35888 4.38281,0 6.17578,-0.1615 3.98437,-0.35888 z m -24.375,-0.91267 c -1.16015,-0.22346 -3.05859,-0.22346 -4.21875,0 -1.16015,0.22345 -0.21093,0.40628 2.10938,0.40628 2.32031,0 3.26953,-0.18283 2.10937,-0.40628 z m 8.90625,0.0154 c -0.90234,-0.2358 -2.3789,-0.2358 -3.28125,0 -0.90234,0.23581 -0.16406,0.42875 1.64063,0.42875 1.80469,0 2.54297,-0.19294 1.64062,-0.42875 z m -264.374995,-1.875 c -0.902344,-0.2358 -2.378906,-0.2358 -3.28125,0 -0.902344,0.23581 -0.164063,0.42875 1.640625,0.42875 1.804687,0 2.542969,-0.19294 1.640625,-0.42875 z m 35.524555,-1.6975 c 1.0828,-1.08281 1.12132,-1.40919 0.16741,-1.41905 -0.68137,-0.008 -2.237024,-0.27999 -3.457021,-0.60655 -2.186616,-0.58529 -2.193657,-0.5651 -0.494775,1.41906 2.051493,2.39597 2.002762,2.38816 3.784386,0.60654 z M 90.9375,101.25 c 0,-0.51562 -0.316406,-0.88754 -0.703125,-0.82648 -0.386719,0.061 -1.335938,0.0476 -2.109375,-0.0298 -1.090473,-0.10921 -0.985214,-0.469757 0.46875,-1.605622 1.746965,-1.364757 1.547602,-1.421926 -2.919535,-0.837226 -3.69907,0.484172 -4.910793,0.324591 -5.303362,-0.698428 -0.644188,-1.678725 -15.010578,-1.737722 -16.679796,-0.06853 -2.227822,2.227828 0.320833,2.922967 10.99216,2.998057 6.143413,0.0432 11.374134,0.50036 11.915061,1.04128 1.2358,1.23584 4.339222,1.25495 4.339222,0.0268 z M 72.890625,97.816613 c 0.644531,-0.260072 1.699219,-0.260072 2.34375,0 0.644531,0.260071 0.117187,0.472865 -1.171875,0.472865 -1.289063,0 -1.816406,-0.212794 -1.171875,-0.472865 z M 93.28125,101.25 c 0.318674,-0.51562 0.132634,-0.9375 -0.413422,-0.9375 -0.546055,0 -0.992828,0.42188 -0.992828,0.9375 0,0.51563 0.186039,0.9375 0.413422,0.9375 0.227382,0 0.674154,-0.42187 0.992828,-0.9375 z m 9.84375,-0.9375 c 0,-0.515625 -0.38738,-0.9375 -0.86082,-0.9375 -0.47346,0 -1.52815,-0.256069 -2.343752,-0.569053 -0.815616,-0.312975 -1.482928,-0.132975 -1.482928,0.400012 0,0.837701 1.45395,1.543911 3.98438,1.935291 0.38671,0.0598 0.70312,-0.31312 0.70312,-0.82875 z M 15.9375,99.105459 c 0,-0.759628 1.399348,-1.26284 3.775252,-1.357584 2.175728,-0.08672 3.542507,0.226041 3.225921,0.738291 -0.325997,0.527475 1.664749,0.824765 4.896624,0.73124 4.390649,-0.127059 4.721644,-0.231431 1.708118,-0.538593 -2.055809,-0.209541 -3.954247,-0.73051 -4.21875,-1.157701 -0.608928,-0.983446 -4.19592,-1.278525 -13.37154,-1.099987 C 4.3553212,96.568959 1.4805683,98.4375 8.8509216,98.4375 c 2.2898824,0 4.4241544,0.421875 4.7428284,0.9375 0.825206,1.33522 2.34375,1.16058 2.34375,-0.269541 z M 43.046875,97.866497 C 43.261718,97.664925 41.46875,97.5 39.0625,97.5 c -2.40625,0 -4.375,0.366525 -4.375,0.814509 0,0.759994 7.500278,0.358022 8.359375,-0.448012 z m 53.261722,0.942094 c -0.311531,-0.311522 -1.120125,-0.344822 -1.796878,-0.07397 -0.747872,0.299269 -0.525731,0.521419 0.566409,0.5664 0.988275,0.04069 1.541991,-0.180863 1.230469,-0.492394 z M 50.859375,97.816613 c -0.644531,-0.260072 -1.699219,-0.260072 -2.34375,0 -0.644531,0.260071 -0.117188,0.472865 1.171875,0.472865 1.289062,0 1.816406,-0.212794 1.171875,-0.472865 z M 29.53125,96.5625 c 0.318674,-0.515625 -0.0783,-0.9375 -0.882172,-0.9375 -0.803867,0 -1.461578,0.421875 -1.461578,0.9375 0,0.515625 0.396977,0.9375 0.882172,0.9375 0.485194,0 1.142904,-0.421875 1.461578,-0.9375 z m -12.1875,-1.821216 c 3.159195,-0.653456 2.466331,-0.792646 -4.397797,-0.883471 -4.5441476,-0.06013 -8.4040591,0.306834 -8.727203,0.829687 -0.7033791,1.138087 7.716021,1.172597 13.125,0.05381 z M 30,93.75 c 0,-1.055179 -1.94696,-1.055179 -6.09375,0 -2.510496,0.638812 -2.334326,0.727566 1.640625,0.826584 C 27.996094,94.637587 30,94.265625 30,93.75 Z m 9.375,0 c 0,-0.515625 -1.582031,-0.907849 -3.515625,-0.871608 -2.820187,0.05286 -3.144725,0.225274 -1.640625,0.871608 2.605209,1.119497 5.15625,1.119497 5.15625,0 z m 764.0625,0 c 0,-0.515625 -0.42188,-0.9375 -0.9375,-0.9375 -0.51563,0 -0.9375,0.421875 -0.9375,0.9375 0,0.515625 0.42187,0.9375 0.9375,0.9375 0.51562,0 0.9375,-0.421875 0.9375,-0.9375 z M 28.59375,91.735646 C 29.625,91.634298 27.726562,91.307786 24.375,91.010063 15.933181,90.260168 4.6875,90.866744 4.6875,92.071978 c 0,0.838371 13.950293,0.642107 23.90625,-0.336332 z m 7.5,-0.798146 C 36.412424,90.421875 35.990549,90 35.15625,90 c -0.834299,0 -1.256174,0.421875 -0.9375,0.9375 0.318674,0.515625 0.740549,0.9375 0.9375,0.9375 0.196951,0 0.618826,-0.421875 0.9375,-0.9375 z m 659.76562,0.316612 c -0.64453,-0.260074 -1.69921,-0.260074 -2.34375,0 -0.64453,0.260074 -0.11718,0.472861 1.17188,0.472861 1.28906,0 1.81641,-0.212787 1.17187,-0.472861 z M 782.34375,90 c 0.31867,-0.515625 0.13264,-0.9375 -0.41342,-0.9375 -0.54606,0 -0.99283,0.421875 -0.99283,0.9375 0,0.515625 0.18604,0.9375 0.41342,0.9375 0.22738,0 0.67416,-0.421875 0.99283,-0.9375 z m 9.84375,0.524078 c 0,-0.227382 -0.42188,-0.674154 -0.9375,-0.992828 -0.51563,-0.318674 -0.9375,-0.132634 -0.9375,0.413422 0,0.546055 0.42187,0.992828 0.9375,0.992828 0.51562,0 0.9375,-0.186039 0.9375,-0.413422 z m 10.39751,-0.451696 c -0.72667,-0.460023 -1.88683,-0.619365 -2.57812,-0.354092 -1.98246,0.760743 -1.47836,1.220443 1.32123,1.204854 1.87631,-0.01044 2.21846,-0.242045 1.25689,-0.850762 z M 23.141493,88.023248 c 24.441345,-0.167727 39.499664,-1.289623 45.296007,-3.374705 2.835937,-1.020154 8.527329,-2.444792 12.647539,-3.165862 5.986003,-1.047598 6.9279,-1.417245 4.6875,-1.839603 -1.542085,-0.290713 -2.69832,-1.032458 -2.569414,-1.648323 0.135982,-0.649669 -0.847952,-1.128686 -2.34375,-1.141027 C 79.441406,76.842028 73.21875,76.441095 67.03125,75.962765 50.280616,74.667841 6.6415245,74.545975 5.3968547,75.790645 4.2160215,76.971478 3.2535713,86.416593 4.0915557,88.600345 4.533495,89.752021 5.0655382,89.86365 6.4869581,89.102929 7.5084033,88.556268 14.853076,88.080128 23.141493,88.023248 Z M 587.34375,89.0625 c -2.57727,-1.107489 -4.05747,-1.107489 -2.34375,0 0.77344,0.499834 2.03906,0.885597 2.8125,0.857252 0.92724,-0.03399 0.76757,-0.325988 -0.46875,-0.857252 z m 7.71485,0.371093 c -0.31153,-0.311522 -1.12013,-0.344829 -1.79688,-0.07402 -0.74787,0.299274 -0.52573,0.521421 0.56641,0.566406 0.98827,0.04071 1.54199,-0.18087 1.23047,-0.492393 z m -40.74388,-0.986034 c -0.63472,-0.256803 -1.90035,-0.272435 -2.8125,-0.03473 -0.91216,0.237697 -0.39285,0.447809 1.15403,0.466914 1.54687,0.01911 2.29318,-0.175373 1.65847,-0.432176 z m 6.99388,0.04853 c -0.31153,-0.311522 -1.12013,-0.344829 -1.79688,-0.07402 -0.74787,0.299274 -0.52573,0.521421 0.56641,0.566406 0.98827,0.04071 1.54199,-0.18087 1.23047,-0.492393 z m 76.42577,-0.111777 c -1.67578,-0.207962 -4.41796,-0.207962 -6.09375,0 -1.67578,0.207963 -0.30468,0.378115 3.04688,0.378115 3.35156,0 4.72266,-0.170152 3.04687,-0.378115 z m 7.01173,0.111777 c -0.31153,-0.311522 -1.12013,-0.344829 -1.79688,-0.07402 -0.74787,0.299274 -0.52573,0.521421 0.56641,0.566406 0.98827,0.04071 1.54199,-0.18087 1.23047,-0.492393 z m 123.0664,0.196127 c 0,-0.203653 -1.6875,-0.531208 -3.75,-0.727898 -2.0625,-0.196691 -3.75,-0.03007 -3.75,0.370279 0,0.400344 1.6875,0.727899 3.75,0.727899 2.0625,0 3.75,-0.166626 3.75,-0.37028 z m 5.90347,-0.801595 c 0.23909,-0.644531 0.23966,-3.28125 9.3e-4,-5.859375 -0.33798,-3.655133 -0.19672,-4.37779 0.6414,-3.28125 0.8542,1.117571 1.00484,0.684553 0.73386,-2.109375 -0.18755,-1.933594 -0.0366,-3.515625 0.33556,-3.515625 0.37209,0 1.18611,1.582031 1.80892,3.515625 0.62281,1.933594 1.55094,4.042969 2.0625,4.6875 0.63582,0.801081 0.57965,1.171875 -0.1775,1.171875 -0.6092,0 -0.84689,0.421875 -0.52822,0.9375 0.31868,0.515625 1.22231,0.9375 2.00808,0.9375 2.38352,0 1.078,-9.319131 -1.61049,-11.496145 -3.04549,-2.466083 -5.95087,-1.785795 -6.32532,1.481055 -0.28491,2.485769 -0.42326,2.562182 -2.35146,1.298778 -1.66941,-1.093837 -10.20554,-1.453065 -46.10352,-1.940181 -24.2298,-0.32879 -55.44509,-0.80336 -69.36696,-1.054599 C 640.92187,72.412669 597.67969,71.990494 558.75,71.725742 490.12248,71.259022 438.97865,70.68803 388.59375,69.826044 375.1875,69.596691 343.75781,69.175829 318.75,68.890797 293.74219,68.605765 248.60156,67.966117 218.4375,67.469358 152.67176,66.386288 108.06798,66.304354 107.5287,67.265625 c -0.21696,0.386719 -0.6576,1.806845 -0.97922,3.155836 l -0.58475,2.45271 13.34576,0.637742 c 19.04784,0.910222 63.6314,1.788444 146.93951,2.894464 41.29064,0.548187 69.14721,1.15222 86.71875,1.880384 6.1875,0.25641 16.52344,0.682329 22.96875,0.946487 6.44531,0.26416 50.95312,0.884249 98.90625,1.377976 47.95312,0.493728 109.26229,1.596816 136.24259,2.451306 39.74936,1.258898 49.47606,1.328324 51.27422,0.365976 1.75858,-0.941165 11.6181,-1.034942 47.50741,-0.45186 24.90856,0.404681 46.5539,0.850589 48.10078,0.990905 1.54687,0.140317 5.76562,0.338333 9.375,0.440037 3.60937,0.101702 5.81905,0.378842 4.9104,0.615865 -0.90866,0.237023 -1.38195,0.868065 -1.05177,1.402314 0.33019,0.534251 0.0189,1.339613 -0.69164,1.789693 -0.96745,0.612764 -0.78174,0.821935 0.73926,0.832684 1.11718,0.0079 2.22687,-0.512988 2.46597,-1.157519 z M 440.3711,87.558593 c -0.31153,-0.311522 -1.12013,-0.344829 -1.79688,-0.07402 -0.74787,0.299274 -0.52573,0.521421 0.56641,0.566406 0.98827,0.04071 1.54199,-0.18087 1.23047,-0.492393 z m 10.34296,-0.07773 c -0.89634,-0.234649 -2.58384,-0.243163 -3.75,-0.01892 -1.16617,0.224243 -0.43281,0.416229 1.62969,0.426635 2.0625,0.01041 3.01664,-0.173067 2.12031,-0.407716 z M 693.75,86.979333 c 0,-0.401133 -4.11328,-0.679419 -9.14063,-0.618413 -5.13229,0.06228 -7.92234,0.370613 -6.36243,0.703125 3.96809,0.845848 15.50306,0.782819 15.50306,-0.08471 z m 5.99718,0.364417 c 0.26556,-0.429688 -0.13141,-0.78125 -0.88217,-0.78125 -0.75075,0 -1.36501,0.351562 -1.36501,0.78125 0,0.429687 0.39697,0.78125 0.88217,0.78125 0.48519,0 1.09945,-0.351563 1.36501,-0.78125 z m 37.36219,0.103066 c -1.67578,-0.207962 -4.41796,-0.207962 -6.09375,0 -1.67578,0.207963 -0.30468,0.378115 3.04688,0.378115 3.35156,0 4.72266,-0.170152 3.04687,-0.378115 z M 792.65625,87.1875 C 792.97492,86.671875 792.34211,86.25 791.25,86.25 c -1.09211,0 -1.72492,0.421875 -1.40625,0.9375 0.31867,0.515625 0.95149,0.9375 1.40625,0.9375 0.45476,0 1.08758,-0.421875 1.40625,-0.9375 z M 594.62722,86.572559 c -0.63472,-0.256803 -1.90034,-0.272435 -2.8125,-0.03473 -0.91216,0.237697 -0.39285,0.447809 1.15403,0.466914 1.54687,0.01911 2.29318,-0.175373 1.65847,-0.432176 z m 186.99388,0.04853 c -0.31152,-0.311522 -1.12013,-0.344829 -1.79688,-0.07402 -0.74787,0.299274 -0.52573,0.521421 0.56641,0.566406 0.98827,0.04071 1.54199,-0.18087 1.23047,-0.492393 z M 803.4375,86.25 c 0,-0.515625 -0.39698,-0.9375 -0.88217,-0.9375 -0.48519,0 -1.14291,0.421875 -1.46158,0.9375 -0.31867,0.515625 0.0783,0.9375 0.88217,0.9375 0.80387,0 1.46158,-0.421875 1.46158,-0.9375 z M 430.23438,84.728307 c 0.21484,-0.194318 -4.00391,-0.29777 -9.375,-0.229894 -6.96926,0.08808 -8.82605,0.328096 -6.48438,0.838215 3.02827,0.659693 14.96359,0.201887 15.85938,-0.608321 z m 60.54687,0.584193 c -0.31867,-0.515625 -1.42315,-0.9375 -2.4544,-0.9375 -1.03125,0 -1.61427,0.421875 -1.2956,0.9375 0.31867,0.515625 1.42315,0.9375 2.4544,0.9375 1.03125,0 1.61427,-0.421875 1.2956,-0.9375 z M 506.25,85.203542 c 0,-0.715358 -1.68144,-0.86311 -5.31427,-0.466979 -7.24541,0.790054 -7.46862,1.513437 -0.46698,1.513437 3.63047,0 5.78125,-0.389311 5.78125,-1.046458 z m 28.125,0.06111 c -6.15953,-1.096 -18.75,-1.063867 -18.75,0.04785 0,0.580366 4.3749,0.892799 11.48437,0.820156 8.90824,-0.09102 10.53805,-0.28573 7.26563,-0.868009 z m 15.24727,0.325418 c -1.15307,-0.222527 -3.26245,-0.228286 -4.6875,-0.0128 -1.42506,0.215488 -0.48165,0.397555 2.09648,0.404594 2.57812,0.007 3.74408,-0.16927 2.59102,-0.391797 z m 13.59179,0.0158 c -0.89634,-0.234649 -2.58384,-0.243163 -3.75,-0.01892 -1.16617,0.224243 -0.43281,0.416229 1.62969,0.426635 2.0625,0.01041 3.01664,-0.173067 2.12031,-0.407716 z m 10.3125,0 c -0.89634,-0.234649 -2.58384,-0.243163 -3.75,-0.01892 -1.16617,0.224243 -0.43281,0.416229 1.62969,0.426635 2.0625,0.01041 3.01664,-0.173067 2.12031,-0.407716 z m 52.48906,-0.0021 c -0.90234,-0.235807 -2.3789,-0.235807 -3.28125,0 -0.90234,0.235807 -0.16406,0.42874 1.64063,0.42874 1.80469,0 2.54297,-0.192932 1.64062,-0.42874 z m 83.67188,-0.869392 c 0,-0.197674 -1.07959,-0.359408 -2.39908,-0.359408 -1.3195,0 -2.16282,0.382269 -1.87406,0.849487 0.48031,0.777166 4.27314,0.342172 4.27314,-0.490079 z m -400.07813,-0.0428 c -0.64453,-0.260074 -1.69921,-0.260074 -2.34375,0 -0.64453,0.260074 -0.11718,0.472861 1.17188,0.472861 1.28906,0 1.81641,-0.212787 1.17187,-0.472861 z m 4.19923,0.05448 c -0.31153,-0.311523 -1.12013,-0.34483 -1.79688,-0.07402 -0.74787,0.299274 -0.52573,0.521422 0.56641,0.566407 0.98827,0.04071 1.54199,-0.18087 1.23047,-0.492394 z m 9.375,0 c -0.31153,-0.311523 -1.12013,-0.34483 -1.79688,-0.07402 -0.74787,0.299274 -0.52573,0.521422 0.56641,0.566407 0.98827,0.04071 1.54199,-0.18087 1.23047,-0.492394 z m 10.3125,0 c -0.31153,-0.311523 -1.12013,-0.34483 -1.79688,-0.07402 -0.74787,0.299274 -0.52573,0.521422 0.56641,0.566407 0.98827,0.04071 1.54199,-0.18087 1.23047,-0.492394 z m 54.30417,-0.49675 c -1.24056,-0.72108 -2.02411,-0.713003 -2.76563,0.02851 -0.75452,0.754531 -0.28589,1.02693 1.73098,1.00614 2.42448,-0.02499 2.55211,-0.152617 1.03465,-1.034648 z m 18.86513,0.381694 c -1.91996,-0.201447 -5.29496,-0.204233 -7.5,-0.0062 -2.20503,0.198043 -0.63415,0.362863 3.49085,0.366269 4.125,0.0034 5.92912,-0.15863 4.00915,-0.360078 z m 30.91272,0.03522 c -0.90234,-0.235807 -2.3789,-0.235807 -3.28125,0 -0.90234,0.235807 -0.16406,0.42874 1.64063,0.42874 1.80469,0 2.54297,-0.192933 1.64062,-0.42874 z m 7.48048,0.07984 c -0.31153,-0.311522 -1.12013,-0.344829 -1.79688,-0.07402 -0.74787,0.299274 -0.52573,0.521421 0.56641,0.566406 0.98827,0.04071 1.54199,-0.18087 1.23047,-0.492393 z m 17.36327,-0.05448 c -0.64453,-0.260074 -1.69921,-0.260074 -2.34375,0 -0.64453,0.260074 -0.11718,0.472861 1.17188,0.472861 1.28906,0 1.81641,-0.212787 1.17187,-0.472861 z m 260.625,0 c -0.64453,-0.260074 -1.69921,-0.260074 -2.34375,0 -0.64453,0.260074 -0.11718,0.472861 1.17188,0.472861 1.28906,0 1.81641,-0.212787 1.17187,-0.472861 z m -439.6875,-0.978237 c -1.16015,-0.223456 -3.05859,-0.223456 -4.21875,0 -1.16015,0.223456 -0.21093,0.406284 2.10938,0.406284 2.32031,0 3.26953,-0.182828 2.10937,-0.406284 z m 11.71875,0.01538 c -0.90234,-0.235807 -2.3789,-0.235807 -3.28125,0 -0.90234,0.235807 -0.16406,0.42874 1.64063,0.42874 1.80469,0 2.54297,-0.192933 1.64062,-0.42874 z m 66.1116,0.0313 c -0.63472,-0.256803 -1.90035,-0.272435 -2.8125,-0.03473 -0.91216,0.237698 -0.39285,0.44781 1.15403,0.466915 1.54687,0.01911 2.29318,-0.175374 1.65847,-0.432176 z m 15.91965,-0.07151 c -2.1914,-0.197377 -5.77734,-0.197377 -7.96875,0 -2.1914,0.197376 -0.39843,0.358866 3.98438,0.358866 4.38281,0 6.17578,-0.16149 3.98437,-0.358866 z M 238.125,82.5 c 0,-0.515625 -1.58203,-0.881963 -3.51563,-0.814087 L 231.09375,81.809327 234.375,82.5 c 1.80469,0.37987 3.38672,0.746209 3.51562,0.814087 0.12891,0.06788 0.23438,-0.298462 0.23438,-0.814087 z m 8.4375,0 c 0,-0.515625 -0.63281,-0.9375 -1.40625,-0.9375 -0.77344,0 -1.40625,0.421875 -1.40625,0.9375 0,0.515625 0.63281,0.9375 1.40625,0.9375 0.77344,0 1.40625,-0.421875 1.40625,-0.9375 z m 13.8086,0.371093 c -0.31153,-0.311522 -1.12013,-0.344829 -1.79688,-0.07402 -0.74787,0.299274 -0.52573,0.521421 0.56641,0.566406 0.98827,0.04071 1.54199,-0.18087 1.23047,-0.492393 z m 9.375,0 c -0.31153,-0.311522 -1.12013,-0.344829 -1.79688,-0.07402 -0.74787,0.299274 -0.52573,0.521421 0.56641,0.566406 0.98827,0.04071 1.54199,-0.18087 1.23047,-0.492393 z m 61.1914,-0.391376 c 0,-0.50447 -2.42578,-0.910757 -5.39063,-0.902861 -2.96484,0.0079 -4.88274,0.337172 -4.26199,0.731726 1.7012,1.081299 9.65262,1.222272 9.65262,0.171135 z m 9.14062,0.31154 c -0.90234,-0.235807 -2.3789,-0.235807 -3.28125,0 -0.90234,0.235807 -0.16406,0.42874 1.64063,0.42874 1.80469,0 2.54297,-0.192933 1.64062,-0.42874 z m 7.96875,-0.01538 c -1.16015,-0.223455 -3.05859,-0.223455 -4.21875,0 -1.16015,0.223456 -0.21093,0.406284 2.10938,0.406284 2.32031,0 3.26953,-0.182828 2.10937,-0.406284 z m 99.14063,-0.201208 c 0,-0.696307 -6.07057,-0.970649 -19.45313,-0.879128 -22.11072,0.151211 -19.81838,1.118425 3.75,1.582253 10.80683,0.21268 15.70313,-0.0066 15.70313,-0.703125 z m 12.99653,0.421874 C 459.12741,81.939902 450,81.408122 450,82.403196 c 0,0.632389 2.06436,1.034304 5.3125,1.034304 2.92187,0 5.11407,-0.198433 4.87153,-0.440962 z M 479.53125,82.5 c -0.31867,-0.515625 -4.35139,-0.9375 -8.96158,-0.9375 -4.96312,0 -8.38217,0.382402 -8.38217,0.9375 0,0.559616 3.6122,0.9375 8.96158,0.9375 5.73565,0 8.75301,-0.337474 8.38217,-0.9375 z m 18.75,0 c -0.31867,-0.515625 -1.82014,-0.9375 -3.33658,-0.9375 -1.51645,0 -2.75717,0.421875 -2.75717,0.9375 0,0.515625 1.50146,0.9375 3.33658,0.9375 1.98565,0 3.10198,-0.379577 2.75717,-0.9375 z m 304.96471,-5.390625 c -0.24579,-5.610722 -0.48977,-6.328125 -2.15221,-6.328125 -1.62501,0 -1.91249,0.71872 -2.15616,5.390625 -0.25803,4.947309 -0.11856,5.390625 1.69595,5.390625 1.08742,0 1.71638,0.421875 1.39771,0.9375 -0.31867,0.515625 -0.11336,0.9375 0.45625,0.9375 0.68098,0 0.94073,-2.167222 0.75846,-6.328125 z M 224.7461,81.933593 c -0.31153,-0.311522 -1.12013,-0.344829 -1.79688,-0.07402 -0.74787,0.299274 -0.52573,0.521421 0.56641,0.566406 0.98827,0.04071 1.54199,-0.18087 1.23047,-0.492393 z M 299.53125,81.5625 c -2.59003,-1.112976 -4.21875,-1.112976 -4.21875,0 0,0.515625 1.37109,0.907849 3.04687,0.871608 2.55331,-0.05522 2.74315,-0.196412 1.17188,-0.871608 z m 13.38415,0.256038 c -1.91996,-0.201447 -5.29496,-0.204234 -7.5,-0.0062 -2.20503,0.198043 -0.63415,0.362863 3.49085,0.366269 4.125,0.0034 5.92912,-0.158629 4.00915,-0.360077 z M 375,81.661866 c 0,-0.45847 -7.91016,-1.090685 -17.57813,-1.404924 -9.66796,-0.314239 -21.48046,-0.790368 -26.25,-1.058064 C 325.58318,78.885203 322.5,79.0522 322.5,79.668577 c 0,0.557023 3.03411,1.009506 7.26562,1.083538 3.9961,0.06991 12.32813,0.398518 18.51563,0.730232 C 366.98208,82.484907 375,82.538779 375,81.661866 Z m 17.34375,-0.09937 c -4.25478,-1.082657 -15.46875,-1.082657 -15.46875,0 0,0.568481 3.59793,0.89384 9.14062,0.82658 6.22357,-0.07553 8.24308,-0.33931 6.32813,-0.82658 z m 12.89062,0.259316 c -1.67578,-0.207962 -4.41796,-0.207962 -6.09375,0 -1.67578,0.207963 -0.30468,0.378115 3.04688,0.378115 3.35156,0 4.72266,-0.170152 3.04687,-0.378115 z m 380.37628,-0.962441 c -0.0178,-2.03028 -1.56179,-4.595731 -2.31353,-3.843999 -0.51603,0.516032 1.30451,5.484624 2.00962,5.484624 0.17504,0 0.3118,-0.738281 0.30391,-1.640625 z M 160.78125,80.625 c -0.31868,-0.515625 -2.45295,-0.9375 -4.74283,-0.9375 -2.28988,0 -4.16342,0.421875 -4.16342,0.9375 0,0.515625 2.13427,0.9375 4.74283,0.9375 2.92315,0 4.52052,-0.359689 4.16342,-0.9375 z m 7.5,0 c -0.73229,-1.184868 -3.3228,-1.184868 -5.15625,0 -1.04389,0.674614 -0.48609,0.912487 2.16471,0.923144 2.14497,0.0086 3.33958,-0.360013 2.99154,-0.923144 z m 9.14062,-0.206714 c -1.51657,-0.731417 -2.70217,-0.731417 -4.21875,0 -1.85204,0.893205 -1.5947,1.017313 2.10938,1.017313 3.70408,0 3.96142,-0.124108 2.10937,-1.017313 z m 8.45535,0.529273 c -0.63472,-0.256803 -1.90035,-0.272435 -2.8125,-0.03473 -0.91216,0.237697 -0.39285,0.447809 1.15403,0.466914 1.54687,0.01911 2.29318,-0.175373 1.65847,-0.432176 z m 12.18255,-0.04499 c -1.15307,-0.222526 -3.26245,-0.228285 -4.6875,-0.0128 -1.42506,0.215488 -0.48165,0.397555 2.09648,0.404594 2.57812,0.007 3.74408,-0.169271 2.59102,-0.391798 z m 90.9246,0.03905 c -0.64453,-0.260073 -1.69921,-0.260073 -2.34375,0 -0.64453,0.260075 -0.11718,0.472862 1.17188,0.472862 1.28906,0 1.81641,-0.212787 1.17187,-0.472862 z M 97.5,79.6875 c 0,-0.515625 -1.371094,-0.93104 -3.046875,-0.923144 -2.312084,0.01089 -2.707741,0.233521 -1.640625,0.923144 1.842647,1.190813 4.6875,1.190813 4.6875,0 z m 10.39935,0.11916 c -1.2413,-0.347292 -2.58274,-1.465396 -2.98099,-2.484675 -0.62074,-1.588764 -0.73348,-1.485318 -0.78996,0.72489 -0.0592,2.31546 0.24452,2.568604 2.98098,2.484675 2.71122,-0.08316 2.79825,-0.163012 0.78997,-0.72489 z m 124.1319,-0.11916 c -0.31868,-0.515625 0.0534,-0.9375 0.82685,-0.9375 0.77343,0 1.66697,-0.421875 1.98565,-0.9375 0.33895,-0.548437 -0.6337,-0.9375 -2.34375,-0.9375 -1.71005,0 -2.6827,0.389063 -2.34375,0.9375 0.31868,0.515625 -0.0534,0.9375 -0.82685,0.9375 -0.77343,0 -1.66697,0.421875 -1.98565,0.9375 -0.33895,0.548437 0.6337,0.9375 2.34375,0.9375 1.71005,0 2.6827,-0.389063 2.34375,-0.9375 z m 18.96485,0.371093 c -0.31153,-0.311522 -1.12013,-0.344829 -1.79688,-0.07402 -0.74787,0.299274 -0.52573,0.521421 0.56641,0.566406 0.98827,0.04071 1.54199,-0.18087 1.23047,-0.492393 z m 9.09397,-0.264009 c 0.28227,-0.456728 3.2603,-0.609906 6.61782,-0.340396 4.22218,0.338915 6.10461,0.161349 6.10461,-0.575835 0,-0.746297 -3.44316,-1.020871 -11.48438,-0.915818 -6.3164,0.08252 -10.00781,0.323535 -8.20312,0.535591 1.80469,0.212055 3.68203,0.777352 4.17187,1.256215 1.1206,1.095475 2.13202,1.110048 2.7932,0.04025 z m 59.59743,0.03969 c 0,-0.804806 -22.69654,-2.012985 -37.92188,-2.018652 -5.46273,-0.0021 -8.07097,0.316529 -7.47457,0.912922 0.51116,0.511165 8.77773,1.038833 18.70313,1.193852 9.78288,0.152794 19.79098,0.373386 22.24019,0.490205 2.44922,0.116819 4.45313,-0.143428 4.45313,-0.578327 z m 474.21691,-2.899302 c -0.0847,-2.161886 -0.96229,-4.715521 -2.1191,-6.166301 -1.62087,-2.03277 -2.44686,-2.35772 -4.61188,-1.814337 -2.91753,0.732254 -3.9466,2.392557 -3.00455,4.847517 0.53124,1.384386 0.74585,1.417772 1.50658,0.234375 0.7269,-1.13078 0.99148,-0.999065 1.46516,0.729398 0.33877,1.236211 1.30895,2.109375 2.34372,2.109375 1.14066,0 1.76566,0.663704 1.76566,1.875 0,1.037648 0.625,1.875 1.3995,1.875 1.02846,0 1.36117,-0.978338 1.25491,-3.690027 z M 213.3198,78.687627 c 0.89671,-1.450901 -0.35414,-2.340788 -1.57466,-1.120263 -0.56987,0.569863 -1.61753,0.813008 -2.32813,0.540323 -0.7106,-0.272685 -1.29201,-0.02878 -1.29201,0.542011 0,1.329029 4.3771,1.360987 5.1948,0.03793 z M 204.84375,77.8125 c 0.32309,-0.522774 -0.3782,-0.931149 -1.58529,-0.923144 -1.74154,0.01155 -1.88981,0.19201 -0.75846,0.923144 1.74444,1.127344 1.64701,1.127344 2.34375,0 z m 13.59375,0 c 0,-0.515625 -0.44678,-0.9375 -0.99283,-0.9375 -0.54606,0 -0.7321,0.421875 -0.41342,0.9375 0.31868,0.515625 0.76545,0.9375 0.99283,0.9375 0.22738,0 0.41342,-0.421875 0.41342,-0.9375 z m 26.71875,0 c -0.31868,-0.515625 -2.45295,-0.9375 -4.74283,-0.9375 -2.28988,0 -4.16342,0.421875 -4.16342,0.9375 0,0.515625 2.13427,0.9375 4.74283,0.9375 2.92315,0 4.52052,-0.359689 4.16342,-0.9375 z M 116.25,76.523437 c 0,-0.738731 -0.96884,-1.289062 -2.26936,-1.289062 -1.54035,0 -2.11045,0.414097 -1.7747,1.289062 0.27207,0.708985 1.29328,1.289063 2.26936,1.289063 0.97608,0 1.7747,-0.580078 1.7747,-1.289063 z m 9.84375,-0.117187 c 0,-0.515625 -1.99946,-1.065903 -4.44326,-1.222838 -3.75948,-0.241428 -4.35436,-0.05368 -3.86562,1.219976 0.42825,1.115969 1.57748,1.432253 4.44327,1.222838 2.12608,-0.155361 3.86561,-0.704351 3.86561,-1.219976 z m 22.5,0.46875 c 1.47312,-0.633024 1.07125,-0.816761 -1.875,-0.857252 -2.75075,-0.0378 -3.37528,0.190626 -2.34375,0.857252 1.64026,1.060016 1.75196,1.060016 4.21875,0 z m 23.90625,0 c 0,-1.221216 -18.7353,-1.221216 -20.625,0 -0.95215,0.615331 2.15081,0.913424 9.60937,0.923144 C 168.2127,77.806912 172.5,77.447623 172.5,76.875 Z m 6.5625,0 c 0,-0.515625 -0.39698,-0.9375 -0.88217,-0.9375 -0.48519,0 -1.1429,0.421875 -1.46158,0.9375 -0.31868,0.515625 0.0783,0.9375 0.88217,0.9375 0.80387,0 1.46158,-0.421875 1.46158,-0.9375 z m -44.28594,-0.644138 c -0.89634,-0.234649 -2.58384,-0.243163 -3.75,-0.01892 -1.16617,0.224243 -0.43281,0.416229 1.62969,0.426635 2.0625,0.01041 3.01664,-0.173067 2.12031,-0.407716 z M 87.65625,75 c -0.318674,-0.515625 -2.477844,-0.9375 -4.798157,-0.9375 -2.320312,0 -3.98958,-0.370805 -3.709484,-0.82401 0.280096,-0.453205 2.519838,-0.658891 4.977203,-0.457079 3.292611,0.270406 3.974704,0.134576 2.592938,-0.516349 -1.03125,-0.485802 -3.432133,-0.912929 -5.335297,-0.94917 -1.903163,-0.03624 -3.690737,-0.438754 -3.972388,-0.894474 -0.284322,-0.460043 2.297221,-0.684924 5.804047,-0.505597 4.579673,0.234189 5.542911,0.105867 3.503638,-0.466748 -1.546875,-0.434353 -4.183594,-0.839647 -5.859375,-0.900653 -1.900801,-0.0692 -3.046875,-0.594016 -3.046875,-1.395246 0,-0.801485 -1.497922,-1.486812 -3.984375,-1.822928 C 71.636719,65.034014 67.3125,64.37653 64.21875,63.869169 49.218241,61.409154 44.036076,60.812387 38.173572,60.869864 34.676849,60.904148 30.036224,60.539161 27.861072,60.058784 25.68592,59.578408 19.858441,58.893795 14.911118,58.537421 4.8414431,57.812066 5.3134745,57.529322 4.2001943,64.953206 3.1601534,71.888696 2.8980407,71.829305 40.3125,73.135758 c 17.789062,0.621166 34.875,1.443646 37.96875,1.827735 8.535995,1.059741 10.010944,1.065485 9.375,0.03651 z m 15.3967,-3.515625 c 0.0832,4.057348 1.43621,4.770648 1.77834,0.9375 0.12656,-1.417969 0.32177,-3.405711 0.43379,-4.417205 0.24293,-2.193613 -2.92368,-3.192148 -4.12276,-1.300038 -0.44061,0.695265 -0.76333,2.951618 -0.71716,5.014118 l 0.0839,3.75 1.23589,-3.75 1.23591,-3.75 0.0721,3.515625 z m 711.63455,2.635242 c -1.89731,-1.110884 -9.08625,-2.37287 -8.21348,-1.441839 0.38102,0.406459 2.27946,1.046722 4.21875,1.422807 4.93866,0.957753 5.6034,0.96092 3.99473,0.01903 z M 797.8125,72.1875 c 0,-0.515625 -0.42188,-0.9375 -0.9375,-0.9375 -0.51563,0 -0.9375,0.421875 -0.9375,0.9375 0,0.515625 0.42187,0.9375 0.9375,0.9375 0.51562,0 0.9375,-0.421875 0.9375,-0.9375 z m -90.59108,-3.695961 c -4.60063,-1.363259 -10.82598,-3.477581 -13.83412,-4.698495 -4.6922,-1.904424 -5.89703,-2.065192 -8.47926,-1.131444 -1.65545,0.59862 -4.93234,1.0884 -7.28198,1.0884 -4.26681,0 -9.37222,1.661065 -13.5806,4.418505 -1.22594,0.803263 -2.05141,1.638051 -1.83438,1.855082 0.21704,0.217031 11.7263,0.634351 25.57614,0.927376 13.84985,0.293025 25.34585,0.67965 25.54667,0.859167 0.20082,0.179517 0.78975,0.06397 1.30872,-0.256772 0.51897,-0.320742 -2.82056,-1.698561 -7.42119,-3.061819 z M 647.34375,69.375 c -0.31867,-0.515625 -1.39826,-0.9375 -2.39908,-0.9375 -1.00082,0 -1.81967,0.421875 -1.81967,0.9375 0,0.515625 1.07959,0.9375 2.39908,0.9375 1.36065,0 2.14828,-0.405789 1.81967,-0.9375 z m 73.59375,-0.447846 c 0,-0.761941 -3.73212,-4.453347 -8.29359,-8.203125 C 708.08242,56.974251 700.08428,50.412638 694.87024,46.142668 685.37009,38.362647 674.0326,25.067948 668.0954,14.745649 665.0513,9.4532484 659.58819,3.75 657.56272,3.75 c -1.01484,0 -1.35008,0.7577305 -1.14061,2.578125 0.23327,2.0273549 0.84924,2.6416744 2.88332,2.8755963 1.79979,0.2069778 3.05462,1.2051617 4.12493,3.2812507 3.44459,6.68152 19.21619,27.697135 24.40158,32.515028 8.62011,8.009205 18.67501,16.173311 23.09245,18.75 2.20996,1.289062 5.26151,3.279604 6.78123,4.423425 3.32306,2.50111 3.23188,2.479845 3.23188,0.753729 z m -69.375,0.03442 c 0,-0.227382 -0.42188,-0.674154 -0.9375,-0.992828 -0.51563,-0.318674 -0.9375,-0.132634 -0.9375,0.413422 0,0.546054 0.42187,0.992827 0.9375,0.992827 0.51562,0 0.9375,-0.186039 0.9375,-0.413422 z m 150.85938,-1.726861 c -0.21485,-0.145905 -1.13857,-0.838389 -2.05271,-1.538853 -1.44702,-1.10877 -1.58568,-1.074443 -1.07158,0.265281 0.32478,0.84637 1.2485,1.538854 2.05272,1.538854 0.8042,0 1.28641,-0.119377 1.07157,-0.265282 z M 660.46875,63.75 c 0.31867,-0.515625 -0.1032,-0.9375 -0.9375,-0.9375 -0.8343,0 -1.25617,0.421875 -0.9375,0.9375 0.31867,0.515625 0.74055,0.9375 0.9375,0.9375 0.19695,0 0.61883,-0.421875 0.9375,-0.9375 z M 804.375,62.8125 c 0,-0.515625 -0.39698,-0.9375 -0.88217,-0.9375 -0.48519,0 -1.14291,0.421875 -1.46158,0.9375 -0.31867,0.515625 0.0783,0.9375 0.88217,0.9375 0.80387,0 1.46158,-0.421875 1.46158,-0.9375 z M 753.75,60.46875 c 0,-0.773438 -0.58116,-1.40625 -1.29146,-1.40625 -0.7103,0 -1.81664,0.632812 -2.45854,1.40625 -0.98695,1.1892 -0.78761,1.40625 1.29146,1.40625 1.56037,0 2.45854,-0.513741 2.45854,-1.40625 z m 18.85111,-1.682152 c 3.29595,-1.69862 6.68082,-2.94296 7.52193,-2.765199 0.84111,0.177761 3.16143,-0.727519 5.15625,-2.011732 6.90558,-4.445615 13.47891,-9.313964 13.09469,-9.698191 -0.21225,-0.212246 -2.53046,1.12147 -5.15157,2.963811 -2.62113,1.842342 -5.05922,3.349713 -5.41799,3.349713 -0.35879,0 -1.52326,0.795262 -2.58775,1.767248 -1.06448,0.971987 -2.99011,2.074091 -4.27917,2.449121 -3.02163,0.879087 -1.95148,-0.108084 5.15625,-4.756444 6.53742,-4.275387 7.177,-4.667845 13.42226,-8.236134 2.58219,-1.475353 4.90324,-3.479259 5.15791,-4.453125 0.62217,-2.379166 -1.65456,-2.305488 -4.83815,0.156569 -8.30375,6.421799 -28.01729,19.214869 -33.36128,21.649754 -2.5871,1.178761 -3.22382,2.673011 -1.13901,2.673011 0.70014,0 3.96967,-1.389781 7.26563,-3.088402 z M 679.6875,59.0625 c 0,-1.174614 -0.99491,-1.174614 -2.8125,0 -1.13715,0.734882 -1.0026,0.911536 0.70312,0.923144 1.16016,0.0079 2.10938,-0.407519 2.10938,-0.923144 z M 675,57.685673 c 0,-0.838681 -0.54965,-1.165907 -1.40625,-0.837197 -0.77344,0.296795 -1.40625,0.916367 -1.40625,1.376826 0,0.460459 0.63281,0.837198 1.40625,0.837198 0.77344,0 1.40625,-0.619572 1.40625,-1.376827 z m 85.0586,-2.00208 c -0.31153,-0.311522 -1.12013,-0.344829 -1.79688,-0.07402 -0.74787,0.299274 -0.52573,0.521421 0.56641,0.566406 0.98827,0.04071 1.54199,-0.18087 1.23047,-0.492393 z m -91.57454,-1.801418 c 1.52127,-0.786679 2.76594,-1.621385 2.76594,-1.854901 0,-0.527735 -4.8337,1.491308 -6.04688,2.525787 -1.43974,1.227673 0.2958,0.872792 3.28094,-0.670886 z m 6.64411,-0.245703 c -0.67635,-0.225451 -1.67547,0.03582 -2.22025,0.580606 -0.69569,0.695689 -0.32966,0.817698 1.22973,0.40991 1.26769,-0.331509 1.69266,-0.756471 0.99052,-0.990516 z M 773.4375,52.03125 c 0,-0.773438 -0.42188,-1.40625 -0.9375,-1.40625 -0.51563,0 -0.9375,0.632812 -0.9375,1.40625 0,0.773437 0.42187,1.40625 0.9375,1.40625 0.51562,0 0.9375,-0.632813 0.9375,-1.40625 z m -108.75,-3.496344 c 0,-0.548723 -0.5957,-0.457608 -1.40625,0.215094 -0.77344,0.641896 -1.40625,1.313124 -1.40625,1.491619 0,0.178494 0.63281,0.0817 1.40625,-0.215095 0.77344,-0.296795 1.40625,-0.968024 1.40625,-1.491618 z m 89.53125,1.152594 c 0.31867,-0.515625 0.13264,-0.9375 -0.41342,-0.9375 -0.54606,0 -0.99283,0.421875 -0.99283,0.9375 0,0.515625 0.18604,0.9375 0.41342,0.9375 0.22738,0 0.67416,-0.421875 0.99283,-0.9375 z m 6.10801,-1.713997 c -0.62475,-0.208251 -1.83276,0.333139 -2.68446,1.203088 -1.44962,1.480672 -1.37704,1.504862 1.13591,0.378636 1.47645,-0.661699 2.1733,-1.373475 1.54855,-1.581724 z m 6.94031,2.082445 c 1.53177,-0.587797 2.06653,-2.243448 0.72461,-2.243448 -0.41707,0 -1.57723,0.619395 -2.57812,1.376435 -1.85784,1.405199 -0.81733,1.891914 1.85351,0.867013 z M 778.125,49.261364 c 0,-0.815419 -4.77867,-5.198864 -5.66761,-5.198864 -1.42241,0 -1.05253,1.117608 1.14353,3.455202 1.78513,1.900177 4.52408,2.95582 4.52408,1.743662 z m -7.29788,-7.420941 c 4.27165,-2.769016 11.14163,-6.829866 15.26663,-9.024111 4.125,-2.194245 8.01847,-4.402672 8.65218,-4.907617 1.45578,-1.16 0.11617,-3.904048 -2.85689,-5.85208 -3.07188,-2.012771 -8.55473,-0.115638 -11.74178,4.062799 -1.3621,1.785799 -3.74542,4.020722 -5.29627,4.966493 -3.29704,2.01066 -2.05528,2.294995 1.39901,0.320343 2.7012,-1.544148 3.75,-1.723529 3.75,-0.641382 0,0.420677 -1.67491,1.706222 -3.72202,2.856765 -2.04712,1.150543 -4.02528,2.582561 -4.39592,3.182262 -0.37063,0.599701 0.90651,0.157907 2.83812,-0.981765 1.93159,-1.139671 3.93466,-2.07213 4.45124,-2.07213 2.02026,0 -0.54653,2.077023 -7.58112,6.134573 -6.47515,3.734861 -10.70438,6.990427 -9.08111,6.990427 0.30321,0 4.04627,-2.26556 8.31793,-5.034577 z m -93.36664,1.987702 c -0.83501,-1.160156 -2.35701,-3.662782 -3.3822,-5.561392 -2.0889,-3.868542 -3.76578,-5.321101 -3.76578,-3.262013 0,0.750956 1.79297,3.510478 3.98437,6.13227 4.12809,4.938831 5.81295,6.372056 3.16361,2.691135 z M 785.625,44.0625 c 0,-1.215877 -3.47162,-4.6875 -4.6875,-4.6875 -1.32793,0 -1.17289,0.729832 0.70312,3.309813 1.66403,2.28845 3.98438,3.090763 3.98438,1.377687 z m -18.25644,-4.506442 c -0.28865,-0.288645 -1.04512,-5.95e-4 -1.68106,0.64011 -0.919,0.92589 -0.81132,1.033574 0.52481,0.524807 0.92458,-0.35206 1.44489,-0.876273 1.15625,-1.164917 z M 795.46875,34.6875 c -0.31867,-0.515625 -1.00128,-0.9375 -1.5169,-0.9375 -0.51563,0 -0.67677,0.421875 -0.3581,0.9375 0.31867,0.515625 1.00128,0.9375 1.5169,0.9375 0.51563,0 0.67677,-0.421875 0.3581,-0.9375 z M 764.7461,29.433593 c -0.31153,-0.311522 -1.12013,-0.344829 -1.79688,-0.07401 -0.74787,0.299274 -0.52573,0.521421 0.56641,0.566406 0.98827,0.04071 1.54199,-0.18087 1.23047,-0.492393 z m 14.3164,-2.815145 c 0,-0.202646 -0.63281,-0.368448 -1.40625,-0.368448 -0.77344,0 -1.40625,0.408635 -1.40625,0.908077 0,0.499442 0.63281,0.665244 1.40625,0.368447 0.77344,-0.296795 1.40625,-0.70543 1.40625,-0.908076 z m 1.27742,-11.32852 c -3.11815,-3.852569 -5.85271,-5.4576258 -4.27255,-2.507774 1.48353,2.769448 5.85366,7.171814 6.48881,6.536671 0.31753,-0.317532 -0.67979,-2.130535 -2.21626,-4.028897 z M 774.375,14.910274 c 0,-1.819545 -3.17814,-6.472774 -4.42088,-6.472774 -1.47102,0 -1.49975,0.747151 -0.1749,4.547603 0.9881,2.834505 4.59578,4.345756 4.59578,1.925171 z"
     id="path3366"
     inkscape:connector-curvature="0" />
</svg>
